<svg width="247" height="94" viewBox="0 0 247 94" fill="none" xmlns="http://www.w3.org/2000/svg">
<path d="M12.6288 21.3193L1 41.5834L16.7738 60.0053L36.5773 48.7219V25.8097L12.6288 21.3193Z" fill="#70E0DD" stroke="#70E0DD" stroke-opacity="0.18"/>
<path d="M60.8712 21.3193L72.5 41.5834L56.7262 60.0053L36.9227 48.7219V25.8097L60.8712 21.3193Z" fill="#008480" stroke="#70E0DD" stroke-opacity="0.18"/>
<path d="M48.3515 83.4518L24.9882 83.3271L16.9834 60.4339L36.6881 48.9787L56.4995 60.4887L48.3515 83.4518Z" fill="#00A4A0" stroke="#70E0DD" stroke-opacity="0.18"/>
<path d="M1 55.5151V42.1592L16.6586 60.4659L24.6031 83.263L12.8591 76.0094L1 55.5151Z" fill="#3FC4C0" stroke="#70E0DD" stroke-opacity="0.18"/>
<path d="M72.5 55.5151V42.1592L56.8414 60.4659L48.8969 83.263L60.6409 76.0094L72.5 55.5151Z" fill="#005957" stroke="#70E0DD" stroke-opacity="0.18"/>
<path d="M24.5351 14.3751L12.9746 21.0635L36.662 25.4496L60.373 20.9098L48.2133 14.377L24.5351 14.3751Z" fill="#CDF8F6" stroke="#70E0DD" stroke-opacity="0.18"/>
<mask id="path-7-outside-1_631_808" maskUnits="userSpaceOnUse" x="92" y="29.0005" width="155" height="48" fill="black">
<rect fill="white" x="92" y="29.0005" width="155" height="48"/>
<path d="M95.413 46.9565V30.2292H100.969C102.253 30.2292 103.308 30.4524 104.132 30.8989C104.956 31.34 105.566 31.9471 105.962 32.7203C106.358 33.4935 106.556 34.3729 106.556 35.3584C106.556 36.344 106.358 37.2179 105.962 37.9802C105.566 38.7426 104.959 39.3415 104.14 39.7771C103.321 40.2073 102.275 40.4224 101.001 40.4224H96.5049V38.5928H100.937C101.814 38.5928 102.521 38.4621 103.056 38.2008C103.597 37.9394 103.987 37.5691 104.228 37.09C104.474 36.6054 104.597 36.0282 104.597 35.3584C104.597 34.6887 104.474 34.1034 104.228 33.6024C103.982 33.1015 103.589 32.7149 103.048 32.4426C102.507 32.1649 101.793 32.0261 100.904 32.0261H97.404V46.9565H95.413ZM103.152 39.4422L107.199 46.9565H104.886L100.904 39.4422H103.152Z"/>
<path d="M115.526 46.9565V30.2292H125.449V32.0261H117.517V37.678H124.935V39.4749H117.517V45.1596H125.578V46.9565H115.526Z"/>
<path d="M134.69 46.9565V30.2292H140.438C141.584 30.2292 142.528 30.4306 143.272 30.8336C144.016 31.2311 144.57 31.7674 144.934 32.4426C145.298 33.1123 145.48 33.8556 145.48 34.6724C145.48 35.3911 145.354 35.9846 145.103 36.4529C144.857 36.9212 144.53 37.2914 144.123 37.5637C143.722 37.836 143.286 38.0374 142.815 38.1681V38.3315C143.318 38.3641 143.824 38.5438 144.332 38.8705C144.84 39.1972 145.266 39.6655 145.609 40.2753C145.951 40.8852 146.122 41.6312 146.122 42.5133C146.122 43.3518 145.935 44.106 145.56 44.7757C145.186 45.4454 144.594 45.9763 143.786 46.3684C142.978 46.7604 141.926 46.9565 140.631 46.9565H134.69ZM136.681 45.1596H140.631C141.932 45.1596 142.855 44.9037 143.401 44.3918C143.952 43.8745 144.228 43.2484 144.228 42.5133C144.228 41.947 144.086 41.4243 143.802 40.9451C143.518 40.4605 143.114 40.0739 142.59 39.7853C142.065 39.4913 141.444 39.3442 140.727 39.3442H136.681V45.1596ZM136.681 37.58H140.374C140.973 37.58 141.514 37.4602 141.996 37.2207C142.483 36.9811 142.868 36.6435 143.152 36.2079C143.441 35.7723 143.585 35.2604 143.585 34.6724C143.585 33.9373 143.334 33.3138 142.831 32.802C142.328 32.2847 141.53 32.0261 140.438 32.0261H136.681V37.58Z"/>
<path d="M168.919 38.5928C168.919 40.357 168.606 41.8816 167.98 43.1667C167.353 44.4517 166.494 45.4427 165.403 46.1397C164.311 46.8367 163.064 47.1851 161.661 47.1851C160.259 47.1851 159.012 46.8367 157.92 46.1397C156.828 45.4427 155.969 44.4517 155.343 43.1667C154.717 41.8816 154.404 40.357 154.404 38.5928C154.404 36.8286 154.717 35.304 155.343 34.019C155.969 32.7339 156.828 31.7429 157.92 31.0459C159.012 30.349 160.259 30.0005 161.661 30.0005C163.064 30.0005 164.311 30.349 165.403 31.0459C166.494 31.7429 167.353 32.7339 167.98 34.019C168.606 35.304 168.919 36.8286 168.919 38.5928ZM166.992 38.5928C166.992 37.1444 166.754 35.922 166.278 34.9256C165.807 33.9291 165.167 33.175 164.359 32.6631C163.556 32.1513 162.657 31.8954 161.661 31.8954C160.666 31.8954 159.764 32.1513 158.956 32.6631C158.153 33.175 157.513 33.9291 157.037 34.9256C156.566 35.922 156.33 37.1444 156.33 38.5928C156.33 40.0412 156.566 41.2636 157.037 42.2601C157.513 43.2565 158.153 44.0107 158.956 44.5225C159.764 45.0343 160.666 45.2903 161.661 45.2903C162.657 45.2903 163.556 45.0343 164.359 44.5225C165.167 44.0107 165.807 43.2565 166.278 42.2601C166.754 41.2636 166.992 40.0412 166.992 38.5928Z"/>
<path d="M188.709 30.2292H190.7V41.3045C190.7 42.4479 190.435 43.4689 189.905 44.3673C189.381 45.2603 188.639 45.9655 187.681 46.4827C186.723 46.9946 185.599 47.2505 184.309 47.2505C183.019 47.2505 181.896 46.9946 180.937 46.4827C179.979 45.9655 179.235 45.2603 178.706 44.3673C178.181 43.4689 177.919 42.4479 177.919 41.3045V30.2292H179.91V41.1411C179.91 41.9579 180.086 42.6848 180.44 43.3219C180.793 43.9535 181.296 44.4517 181.949 44.8165C182.607 45.1759 183.394 45.3556 184.309 45.3556C185.225 45.3556 186.011 45.1759 186.67 44.8165C187.328 44.4517 187.831 43.9535 188.179 43.3219C188.532 42.6848 188.709 41.9579 188.709 41.1411V30.2292Z"/>
<path d="M213.366 30.2292V46.9565H211.439L202.48 33.8229H202.319V46.9565H200.328V30.2292H202.255L211.247 43.3954H211.407V30.2292H213.366Z"/>
<path d="M228.076 46.9565H223.002V30.2292H228.301C229.896 30.2292 231.261 30.5641 232.395 31.2338C233.53 31.8981 234.4 32.8537 235.005 34.1006C235.609 35.3421 235.912 36.8286 235.912 38.5601C235.912 40.3026 235.607 41.8027 234.997 43.0605C234.386 44.3129 233.498 45.2766 232.331 45.9518C231.164 46.6216 229.746 46.9565 228.076 46.9565ZM224.993 45.1596H227.948C229.307 45.1596 230.434 44.8928 231.328 44.3592C232.221 43.8255 232.888 43.0659 233.327 42.0804C233.766 41.0948 233.985 39.9214 233.985 38.5601C233.985 37.2098 233.768 36.0472 233.335 35.0726C232.901 34.0925 232.254 33.341 231.392 32.8183C230.53 32.2901 229.457 32.0261 228.172 32.0261H224.993V45.1596Z"/>
<path d="M96.0874 75.7065H94L100.037 58.9792H102.093L108.13 75.7065H106.043L101.129 61.6255H101.001L96.0874 75.7065ZM96.8581 69.1724H105.272V70.9692H96.8581V69.1724Z"/>
<path d="M121.417 75.7065H116.343V58.9792H121.642C123.237 58.9792 124.602 59.3141 125.736 59.9838C126.871 60.6481 127.741 61.6037 128.345 62.8506C128.95 64.0921 129.253 65.5786 129.253 67.3102C129.253 69.0526 128.948 70.5527 128.337 71.8105C127.727 73.0629 126.839 74.0266 125.672 74.7018C124.505 75.3716 123.087 75.7065 121.417 75.7065ZM118.334 73.9096H121.289C122.648 73.9096 123.775 73.6428 124.668 73.1092C125.562 72.5755 126.229 71.8159 126.668 70.8304C127.106 69.8448 127.326 68.6714 127.326 67.3102C127.326 65.9598 127.109 64.7972 126.676 63.8226C126.242 62.8425 125.594 62.091 124.733 61.5683C123.871 61.0401 122.798 60.7761 121.513 60.7761H118.334V73.9096Z"/>
<path d="M138.146 58.9792L143.027 73.0601H143.22L148.101 58.9792H150.189L144.151 75.7065H142.096L136.059 58.9792H138.146Z"/>
<path d="M160.393 58.9792V75.7065H158.402V58.9792H160.393Z"/>
<path d="M179.029 63.161C178.932 62.3333 178.542 61.6908 177.857 61.2334C177.171 60.7761 176.331 60.5474 175.336 60.5474C174.608 60.5474 173.971 60.6672 173.425 60.9067C172.884 61.1463 172.461 61.4757 172.156 61.895C171.857 62.3143 171.707 62.7907 171.707 63.3244C171.707 63.7708 171.811 64.1547 172.02 64.476C172.234 64.7918 172.507 65.0559 172.839 65.2682C173.171 65.4752 173.519 65.6467 173.882 65.7828C174.246 65.9135 174.581 66.0197 174.886 66.1013L176.556 66.5587C176.984 66.6731 177.46 66.831 177.985 67.0324C178.515 67.2339 179.021 67.5089 179.502 67.8574C179.989 68.2004 180.391 68.6415 180.707 69.1805C181.022 69.7196 181.18 70.3812 181.18 71.1653C181.18 72.0691 180.947 72.8859 180.482 73.6155C180.022 74.3452 179.347 74.9251 178.459 75.3552C177.576 75.7854 176.502 76.0005 175.239 76.0005C174.062 76.0005 173.042 75.8072 172.18 75.4206C171.324 75.034 170.65 74.4949 170.157 73.8034C169.67 73.1119 169.395 72.3087 169.33 71.394H171.386C171.439 72.0256 171.648 72.5483 172.012 72.9621C172.381 73.3705 172.847 73.6754 173.409 73.8769C173.976 74.0729 174.586 74.1709 175.239 74.1709C175.999 74.1709 176.682 74.0457 177.287 73.7952C177.891 73.5393 178.37 73.1854 178.724 72.7334C179.077 72.2761 179.253 71.7424 179.253 71.1326C179.253 70.5772 179.101 70.1253 178.796 69.7768C178.491 69.4283 178.089 69.1451 177.592 68.9273C177.094 68.7095 176.556 68.519 175.978 68.3556L173.955 67.7675C172.67 67.3918 171.653 66.8555 170.904 66.1585C170.155 65.4615 169.78 64.5495 169.78 63.4224C169.78 62.4858 170.029 61.6691 170.527 60.9721C171.03 60.2697 171.704 59.7252 172.55 59.3386C173.401 58.9465 174.351 58.7505 175.4 58.7505C176.46 58.7505 177.402 58.9438 178.226 59.3304C179.05 59.7115 179.703 60.2343 180.185 60.8986C180.672 61.5629 180.929 62.317 180.956 63.161H179.029Z"/>
<path d="M203.979 67.3428C203.979 69.107 203.666 70.6316 203.04 71.9167C202.413 73.2017 201.554 74.1927 200.462 74.8897C199.371 75.5867 198.124 75.9351 196.721 75.9351C195.319 75.9351 194.072 75.5867 192.98 74.8897C191.888 74.1927 191.029 73.2017 190.403 71.9167C189.777 70.6316 189.464 69.107 189.464 67.3428C189.464 65.5786 189.777 64.054 190.403 62.769C191.029 61.4839 191.888 60.4929 192.98 59.7959C194.072 59.099 195.319 58.7505 196.721 58.7505C198.124 58.7505 199.371 59.099 200.462 59.7959C201.554 60.4929 202.413 61.4839 203.04 62.769C203.666 64.054 203.979 65.5786 203.979 67.3428ZM202.052 67.3428C202.052 65.8944 201.814 64.672 201.338 63.6756C200.867 62.6791 200.227 61.925 199.419 61.4131C198.616 60.9013 197.717 60.6454 196.721 60.6454C195.726 60.6454 194.824 60.9013 194.016 61.4131C193.213 61.925 192.573 62.6791 192.097 63.6756C191.626 64.672 191.39 65.8944 191.39 67.3428C191.39 68.7912 191.626 70.0136 192.097 71.0101C192.573 72.0065 193.213 72.7607 194.016 73.2725C194.824 73.7843 195.726 74.0403 196.721 74.0403C197.717 74.0403 198.616 73.7843 199.419 73.2725C200.227 72.7607 200.867 72.0065 201.338 71.0101C201.814 70.0136 202.052 68.7912 202.052 67.3428Z"/>
<path d="M212.979 75.7065V58.9792H218.534C219.819 58.9792 220.873 59.2024 221.698 59.6489C222.522 60.09 223.132 60.6971 223.528 61.4703C223.924 62.2435 224.122 63.1229 224.122 64.1084C224.122 65.094 223.924 65.9679 223.528 66.7302C223.132 67.4926 222.525 68.0915 221.706 68.5271C220.887 68.9573 219.84 69.1724 218.567 69.1724H214.071V67.3428H218.502C219.38 67.3428 220.087 67.2121 220.622 66.9508C221.162 66.6894 221.553 66.3191 221.794 65.84C222.04 65.3554 222.163 64.7782 222.163 64.1084C222.163 63.4387 222.04 62.8534 221.794 62.3524C221.548 61.8515 221.154 61.4649 220.614 61.1926C220.073 60.9149 219.359 60.7761 218.47 60.7761H214.97V75.7065H212.979ZM220.718 68.1922L224.764 75.7065H222.452L218.47 68.1922H220.718Z"/>
<path d="M231.127 58.9792H233.407L237.967 66.7874H238.16L242.72 58.9792H245L239.059 68.813V75.7065H237.068V68.813L231.127 58.9792Z"/>
</mask>
<path d="M95.413 46.9565V30.2292H100.969C102.253 30.2292 103.308 30.4524 104.132 30.8989C104.956 31.34 105.566 31.9471 105.962 32.7203C106.358 33.4935 106.556 34.3729 106.556 35.3584C106.556 36.344 106.358 37.2179 105.962 37.9802C105.566 38.7426 104.959 39.3415 104.14 39.7771C103.321 40.2073 102.275 40.4224 101.001 40.4224H96.5049V38.5928H100.937C101.814 38.5928 102.521 38.4621 103.056 38.2008C103.597 37.9394 103.987 37.5691 104.228 37.09C104.474 36.6054 104.597 36.0282 104.597 35.3584C104.597 34.6887 104.474 34.1034 104.228 33.6024C103.982 33.1015 103.589 32.7149 103.048 32.4426C102.507 32.1649 101.793 32.0261 100.904 32.0261H97.404V46.9565H95.413ZM103.152 39.4422L107.199 46.9565H104.886L100.904 39.4422H103.152Z" fill="#CDF8F6"/>
<path d="M115.526 46.9565V30.2292H125.449V32.0261H117.517V37.678H124.935V39.4749H117.517V45.1596H125.578V46.9565H115.526Z" fill="#CDF8F6"/>
<path d="M134.69 46.9565V30.2292H140.438C141.584 30.2292 142.528 30.4306 143.272 30.8336C144.016 31.2311 144.57 31.7674 144.934 32.4426C145.298 33.1123 145.48 33.8556 145.48 34.6724C145.48 35.3911 145.354 35.9846 145.103 36.4529C144.857 36.9212 144.53 37.2914 144.123 37.5637C143.722 37.836 143.286 38.0374 142.815 38.1681V38.3315C143.318 38.3641 143.824 38.5438 144.332 38.8705C144.84 39.1972 145.266 39.6655 145.609 40.2753C145.951 40.8852 146.122 41.6312 146.122 42.5133C146.122 43.3518 145.935 44.106 145.56 44.7757C145.186 45.4454 144.594 45.9763 143.786 46.3684C142.978 46.7604 141.926 46.9565 140.631 46.9565H134.69ZM136.681 45.1596H140.631C141.932 45.1596 142.855 44.9037 143.401 44.3918C143.952 43.8745 144.228 43.2484 144.228 42.5133C144.228 41.947 144.086 41.4243 143.802 40.9451C143.518 40.4605 143.114 40.0739 142.59 39.7853C142.065 39.4913 141.444 39.3442 140.727 39.3442H136.681V45.1596ZM136.681 37.58H140.374C140.973 37.58 141.514 37.4602 141.996 37.2207C142.483 36.9811 142.868 36.6435 143.152 36.2079C143.441 35.7723 143.585 35.2604 143.585 34.6724C143.585 33.9373 143.334 33.3138 142.831 32.802C142.328 32.2847 141.53 32.0261 140.438 32.0261H136.681V37.58Z" fill="#CDF8F6"/>
<path d="M168.919 38.5928C168.919 40.357 168.606 41.8816 167.98 43.1667C167.353 44.4517 166.494 45.4427 165.403 46.1397C164.311 46.8367 163.064 47.1851 161.661 47.1851C160.259 47.1851 159.012 46.8367 157.92 46.1397C156.828 45.4427 155.969 44.4517 155.343 43.1667C154.717 41.8816 154.404 40.357 154.404 38.5928C154.404 36.8286 154.717 35.304 155.343 34.019C155.969 32.7339 156.828 31.7429 157.92 31.0459C159.012 30.349 160.259 30.0005 161.661 30.0005C163.064 30.0005 164.311 30.349 165.403 31.0459C166.494 31.7429 167.353 32.7339 167.98 34.019C168.606 35.304 168.919 36.8286 168.919 38.5928ZM166.992 38.5928C166.992 37.1444 166.754 35.922 166.278 34.9256C165.807 33.9291 165.167 33.175 164.359 32.6631C163.556 32.1513 162.657 31.8954 161.661 31.8954C160.666 31.8954 159.764 32.1513 158.956 32.6631C158.153 33.175 157.513 33.9291 157.037 34.9256C156.566 35.922 156.33 37.1444 156.33 38.5928C156.33 40.0412 156.566 41.2636 157.037 42.2601C157.513 43.2565 158.153 44.0107 158.956 44.5225C159.764 45.0343 160.666 45.2903 161.661 45.2903C162.657 45.2903 163.556 45.0343 164.359 44.5225C165.167 44.0107 165.807 43.2565 166.278 42.2601C166.754 41.2636 166.992 40.0412 166.992 38.5928Z" fill="#CDF8F6"/>
<path d="M188.709 30.2292H190.7V41.3045C190.7 42.4479 190.435 43.4689 189.905 44.3673C189.381 45.2603 188.639 45.9655 187.681 46.4827C186.723 46.9946 185.599 47.2505 184.309 47.2505C183.019 47.2505 181.896 46.9946 180.937 46.4827C179.979 45.9655 179.235 45.2603 178.706 44.3673C178.181 43.4689 177.919 42.4479 177.919 41.3045V30.2292H179.91V41.1411C179.91 41.9579 180.086 42.6848 180.44 43.3219C180.793 43.9535 181.296 44.4517 181.949 44.8165C182.607 45.1759 183.394 45.3556 184.309 45.3556C185.225 45.3556 186.011 45.1759 186.67 44.8165C187.328 44.4517 187.831 43.9535 188.179 43.3219C188.532 42.6848 188.709 41.9579 188.709 41.1411V30.2292Z" fill="#CDF8F6"/>
<path d="M213.366 30.2292V46.9565H211.439L202.48 33.8229H202.319V46.9565H200.328V30.2292H202.255L211.247 43.3954H211.407V30.2292H213.366Z" fill="#CDF8F6"/>
<path d="M228.076 46.9565H223.002V30.2292H228.301C229.896 30.2292 231.261 30.5641 232.395 31.2338C233.53 31.8981 234.4 32.8537 235.005 34.1006C235.609 35.3421 235.912 36.8286 235.912 38.5601C235.912 40.3026 235.607 41.8027 234.997 43.0605C234.386 44.3129 233.498 45.2766 232.331 45.9518C231.164 46.6216 229.746 46.9565 228.076 46.9565ZM224.993 45.1596H227.948C229.307 45.1596 230.434 44.8928 231.328 44.3592C232.221 43.8255 232.888 43.0659 233.327 42.0804C233.766 41.0948 233.985 39.9214 233.985 38.5601C233.985 37.2098 233.768 36.0472 233.335 35.0726C232.901 34.0925 232.254 33.341 231.392 32.8183C230.53 32.2901 229.457 32.0261 228.172 32.0261H224.993V45.1596Z" fill="#CDF8F6"/>
<path d="M96.0874 75.7065H94L100.037 58.9792H102.093L108.13 75.7065H106.043L101.129 61.6255H101.001L96.0874 75.7065ZM96.8581 69.1724H105.272V70.9692H96.8581V69.1724Z" fill="#CDF8F6"/>
<path d="M121.417 75.7065H116.343V58.9792H121.642C123.237 58.9792 124.602 59.3141 125.736 59.9838C126.871 60.6481 127.741 61.6037 128.345 62.8506C128.95 64.0921 129.253 65.5786 129.253 67.3102C129.253 69.0526 128.948 70.5527 128.337 71.8105C127.727 73.0629 126.839 74.0266 125.672 74.7018C124.505 75.3716 123.087 75.7065 121.417 75.7065ZM118.334 73.9096H121.289C122.648 73.9096 123.775 73.6428 124.668 73.1092C125.562 72.5755 126.229 71.8159 126.668 70.8304C127.106 69.8448 127.326 68.6714 127.326 67.3102C127.326 65.9598 127.109 64.7972 126.676 63.8226C126.242 62.8425 125.594 62.091 124.733 61.5683C123.871 61.0401 122.798 60.7761 121.513 60.7761H118.334V73.9096Z" fill="#CDF8F6"/>
<path d="M138.146 58.9792L143.027 73.0601H143.22L148.101 58.9792H150.189L144.151 75.7065H142.096L136.059 58.9792H138.146Z" fill="#CDF8F6"/>
<path d="M160.393 58.9792V75.7065H158.402V58.9792H160.393Z" fill="#CDF8F6"/>
<path d="M179.029 63.161C178.932 62.3333 178.542 61.6908 177.857 61.2334C177.171 60.7761 176.331 60.5474 175.336 60.5474C174.608 60.5474 173.971 60.6672 173.425 60.9067C172.884 61.1463 172.461 61.4757 172.156 61.895C171.857 62.3143 171.707 62.7907 171.707 63.3244C171.707 63.7708 171.811 64.1547 172.02 64.476C172.234 64.7918 172.507 65.0559 172.839 65.2682C173.171 65.4752 173.519 65.6467 173.882 65.7828C174.246 65.9135 174.581 66.0197 174.886 66.1013L176.556 66.5587C176.984 66.6731 177.46 66.831 177.985 67.0324C178.515 67.2339 179.021 67.5089 179.502 67.8574C179.989 68.2004 180.391 68.6415 180.707 69.1805C181.022 69.7196 181.18 70.3812 181.18 71.1653C181.18 72.0691 180.947 72.8859 180.482 73.6155C180.022 74.3452 179.347 74.9251 178.459 75.3552C177.576 75.7854 176.502 76.0005 175.239 76.0005C174.062 76.0005 173.042 75.8072 172.18 75.4206C171.324 75.034 170.65 74.4949 170.157 73.8034C169.67 73.1119 169.395 72.3087 169.33 71.394H171.386C171.439 72.0256 171.648 72.5483 172.012 72.9621C172.381 73.3705 172.847 73.6754 173.409 73.8769C173.976 74.0729 174.586 74.1709 175.239 74.1709C175.999 74.1709 176.682 74.0457 177.287 73.7952C177.891 73.5393 178.37 73.1854 178.724 72.7334C179.077 72.2761 179.253 71.7424 179.253 71.1326C179.253 70.5772 179.101 70.1253 178.796 69.7768C178.491 69.4283 178.089 69.1451 177.592 68.9273C177.094 68.7095 176.556 68.519 175.978 68.3556L173.955 67.7675C172.67 67.3918 171.653 66.8555 170.904 66.1585C170.155 65.4615 169.78 64.5495 169.78 63.4224C169.78 62.4858 170.029 61.6691 170.527 60.9721C171.03 60.2697 171.704 59.7252 172.55 59.3386C173.401 58.9465 174.351 58.7505 175.4 58.7505C176.46 58.7505 177.402 58.9438 178.226 59.3304C179.05 59.7115 179.703 60.2343 180.185 60.8986C180.672 61.5629 180.929 62.317 180.956 63.161H179.029Z" fill="#CDF8F6"/>
<path d="M203.979 67.3428C203.979 69.107 203.666 70.6316 203.04 71.9167C202.413 73.2017 201.554 74.1927 200.462 74.8897C199.371 75.5867 198.124 75.9351 196.721 75.9351C195.319 75.9351 194.072 75.5867 192.98 74.8897C191.888 74.1927 191.029 73.2017 190.403 71.9167C189.777 70.6316 189.464 69.107 189.464 67.3428C189.464 65.5786 189.777 64.054 190.403 62.769C191.029 61.4839 191.888 60.4929 192.98 59.7959C194.072 59.099 195.319 58.7505 196.721 58.7505C198.124 58.7505 199.371 59.099 200.462 59.7959C201.554 60.4929 202.413 61.4839 203.04 62.769C203.666 64.054 203.979 65.5786 203.979 67.3428ZM202.052 67.3428C202.052 65.8944 201.814 64.672 201.338 63.6756C200.867 62.6791 200.227 61.925 199.419 61.4131C198.616 60.9013 197.717 60.6454 196.721 60.6454C195.726 60.6454 194.824 60.9013 194.016 61.4131C193.213 61.925 192.573 62.6791 192.097 63.6756C191.626 64.672 191.39 65.8944 191.39 67.3428C191.39 68.7912 191.626 70.0136 192.097 71.0101C192.573 72.0065 193.213 72.7607 194.016 73.2725C194.824 73.7843 195.726 74.0403 196.721 74.0403C197.717 74.0403 198.616 73.7843 199.419 73.2725C200.227 72.7607 200.867 72.0065 201.338 71.0101C201.814 70.0136 202.052 68.7912 202.052 67.3428Z" fill="#CDF8F6"/>
<path d="M212.979 75.7065V58.9792H218.534C219.819 58.9792 220.873 59.2024 221.698 59.6489C222.522 60.09 223.132 60.6971 223.528 61.4703C223.924 62.2435 224.122 63.1229 224.122 64.1084C224.122 65.094 223.924 65.9679 223.528 66.7302C223.132 67.4926 222.525 68.0915 221.706 68.5271C220.887 68.9573 219.84 69.1724 218.567 69.1724H214.071V67.3428H218.502C219.38 67.3428 220.087 67.2121 220.622 66.9508C221.162 66.6894 221.553 66.3191 221.794 65.84C222.04 65.3554 222.163 64.7782 222.163 64.1084C222.163 63.4387 222.04 62.8534 221.794 62.3524C221.548 61.8515 221.154 61.4649 220.614 61.1926C220.073 60.9149 219.359 60.7761 218.47 60.7761H214.97V75.7065H212.979ZM220.718 68.1922L224.764 75.7065H222.452L218.47 68.1922H220.718Z" fill="#CDF8F6"/>
<path d="M231.127 58.9792H233.407L237.967 66.7874H238.16L242.72 58.9792H245L239.059 68.813V75.7065H237.068V68.813L231.127 58.9792Z" fill="#CDF8F6"/>
<path d="M95.413 46.9565V30.2292H100.969C102.253 30.2292 103.308 30.4524 104.132 30.8989C104.956 31.34 105.566 31.9471 105.962 32.7203C106.358 33.4935 106.556 34.3729 106.556 35.3584C106.556 36.344 106.358 37.2179 105.962 37.9802C105.566 38.7426 104.959 39.3415 104.14 39.7771C103.321 40.2073 102.275 40.4224 101.001 40.4224H96.5049V38.5928H100.937C101.814 38.5928 102.521 38.4621 103.056 38.2008C103.597 37.9394 103.987 37.5691 104.228 37.09C104.474 36.6054 104.597 36.0282 104.597 35.3584C104.597 34.6887 104.474 34.1034 104.228 33.6024C103.982 33.1015 103.589 32.7149 103.048 32.4426C102.507 32.1649 101.793 32.0261 100.904 32.0261H97.404V46.9565H95.413ZM103.152 39.4422L107.199 46.9565H104.886L100.904 39.4422H103.152Z" stroke="#70E0DD" stroke-opacity="0.18" stroke-width="2" mask="url(#path-7-outside-1_631_808)"/>
<path d="M115.526 46.9565V30.2292H125.449V32.0261H117.517V37.678H124.935V39.4749H117.517V45.1596H125.578V46.9565H115.526Z" stroke="#70E0DD" stroke-opacity="0.18" stroke-width="2" mask="url(#path-7-outside-1_631_808)"/>
<path d="M134.69 46.9565V30.2292H140.438C141.584 30.2292 142.528 30.4306 143.272 30.8336C144.016 31.2311 144.57 31.7674 144.934 32.4426C145.298 33.1123 145.48 33.8556 145.48 34.6724C145.48 35.3911 145.354 35.9846 145.103 36.4529C144.857 36.9212 144.53 37.2914 144.123 37.5637C143.722 37.836 143.286 38.0374 142.815 38.1681V38.3315C143.318 38.3641 143.824 38.5438 144.332 38.8705C144.84 39.1972 145.266 39.6655 145.609 40.2753C145.951 40.8852 146.122 41.6312 146.122 42.5133C146.122 43.3518 145.935 44.106 145.56 44.7757C145.186 45.4454 144.594 45.9763 143.786 46.3684C142.978 46.7604 141.926 46.9565 140.631 46.9565H134.69ZM136.681 45.1596H140.631C141.932 45.1596 142.855 44.9037 143.401 44.3918C143.952 43.8745 144.228 43.2484 144.228 42.5133C144.228 41.947 144.086 41.4243 143.802 40.9451C143.518 40.4605 143.114 40.0739 142.59 39.7853C142.065 39.4913 141.444 39.3442 140.727 39.3442H136.681V45.1596ZM136.681 37.58H140.374C140.973 37.58 141.514 37.4602 141.996 37.2207C142.483 36.9811 142.868 36.6435 143.152 36.2079C143.441 35.7723 143.585 35.2604 143.585 34.6724C143.585 33.9373 143.334 33.3138 142.831 32.802C142.328 32.2847 141.53 32.0261 140.438 32.0261H136.681V37.58Z" stroke="#70E0DD" stroke-opacity="0.18" stroke-width="2" mask="url(#path-7-outside-1_631_808)"/>
<path d="M168.919 38.5928C168.919 40.357 168.606 41.8816 167.98 43.1667C167.353 44.4517 166.494 45.4427 165.403 46.1397C164.311 46.8367 163.064 47.1851 161.661 47.1851C160.259 47.1851 159.012 46.8367 157.92 46.1397C156.828 45.4427 155.969 44.4517 155.343 43.1667C154.717 41.8816 154.404 40.357 154.404 38.5928C154.404 36.8286 154.717 35.304 155.343 34.019C155.969 32.7339 156.828 31.7429 157.92 31.0459C159.012 30.349 160.259 30.0005 161.661 30.0005C163.064 30.0005 164.311 30.349 165.403 31.0459C166.494 31.7429 167.353 32.7339 167.98 34.019C168.606 35.304 168.919 36.8286 168.919 38.5928ZM166.992 38.5928C166.992 37.1444 166.754 35.922 166.278 34.9256C165.807 33.9291 165.167 33.175 164.359 32.6631C163.556 32.1513 162.657 31.8954 161.661 31.8954C160.666 31.8954 159.764 32.1513 158.956 32.6631C158.153 33.175 157.513 33.9291 157.037 34.9256C156.566 35.922 156.33 37.1444 156.33 38.5928C156.33 40.0412 156.566 41.2636 157.037 42.2601C157.513 43.2565 158.153 44.0107 158.956 44.5225C159.764 45.0343 160.666 45.2903 161.661 45.2903C162.657 45.2903 163.556 45.0343 164.359 44.5225C165.167 44.0107 165.807 43.2565 166.278 42.2601C166.754 41.2636 166.992 40.0412 166.992 38.5928Z" stroke="#70E0DD" stroke-opacity="0.18" stroke-width="2" mask="url(#path-7-outside-1_631_808)"/>
<path d="M188.709 30.2292H190.7V41.3045C190.7 42.4479 190.435 43.4689 189.905 44.3673C189.381 45.2603 188.639 45.9655 187.681 46.4827C186.723 46.9946 185.599 47.2505 184.309 47.2505C183.019 47.2505 181.896 46.9946 180.937 46.4827C179.979 45.9655 179.235 45.2603 178.706 44.3673C178.181 43.4689 177.919 42.4479 177.919 41.3045V30.2292H179.91V41.1411C179.91 41.9579 180.086 42.6848 180.44 43.3219C180.793 43.9535 181.296 44.4517 181.949 44.8165C182.607 45.1759 183.394 45.3556 184.309 45.3556C185.225 45.3556 186.011 45.1759 186.67 44.8165C187.328 44.4517 187.831 43.9535 188.179 43.3219C188.532 42.6848 188.709 41.9579 188.709 41.1411V30.2292Z" stroke="#70E0DD" stroke-opacity="0.18" stroke-width="2" mask="url(#path-7-outside-1_631_808)"/>
<path d="M213.366 30.2292V46.9565H211.439L202.48 33.8229H202.319V46.9565H200.328V30.2292H202.255L211.247 43.3954H211.407V30.2292H213.366Z" stroke="#70E0DD" stroke-opacity="0.18" stroke-width="2" mask="url(#path-7-outside-1_631_808)"/>
<path d="M228.076 46.9565H223.002V30.2292H228.301C229.896 30.2292 231.261 30.5641 232.395 31.2338C233.53 31.8981 234.4 32.8537 235.005 34.1006C235.609 35.3421 235.912 36.8286 235.912 38.5601C235.912 40.3026 235.607 41.8027 234.997 43.0605C234.386 44.3129 233.498 45.2766 232.331 45.9518C231.164 46.6216 229.746 46.9565 228.076 46.9565ZM224.993 45.1596H227.948C229.307 45.1596 230.434 44.8928 231.328 44.3592C232.221 43.8255 232.888 43.0659 233.327 42.0804C233.766 41.0948 233.985 39.9214 233.985 38.5601C233.985 37.2098 233.768 36.0472 233.335 35.0726C232.901 34.0925 232.254 33.341 231.392 32.8183C230.53 32.2901 229.457 32.0261 228.172 32.0261H224.993V45.1596Z" stroke="#70E0DD" stroke-opacity="0.18" stroke-width="2" mask="url(#path-7-outside-1_631_808)"/>
<path d="M96.0874 75.7065H94L100.037 58.9792H102.093L108.13 75.7065H106.043L101.129 61.6255H101.001L96.0874 75.7065ZM96.8581 69.1724H105.272V70.9692H96.8581V69.1724Z" stroke="#70E0DD" stroke-opacity="0.18" stroke-width="2" mask="url(#path-7-outside-1_631_808)"/>
<path d="M121.417 75.7065H116.343V58.9792H121.642C123.237 58.9792 124.602 59.3141 125.736 59.9838C126.871 60.6481 127.741 61.6037 128.345 62.8506C128.95 64.0921 129.253 65.5786 129.253 67.3102C129.253 69.0526 128.948 70.5527 128.337 71.8105C127.727 73.0629 126.839 74.0266 125.672 74.7018C124.505 75.3716 123.087 75.7065 121.417 75.7065ZM118.334 73.9096H121.289C122.648 73.9096 123.775 73.6428 124.668 73.1092C125.562 72.5755 126.229 71.8159 126.668 70.8304C127.106 69.8448 127.326 68.6714 127.326 67.3102C127.326 65.9598 127.109 64.7972 126.676 63.8226C126.242 62.8425 125.594 62.091 124.733 61.5683C123.871 61.0401 122.798 60.7761 121.513 60.7761H118.334V73.9096Z" stroke="#70E0DD" stroke-opacity="0.18" stroke-width="2" mask="url(#path-7-outside-1_631_808)"/>
<path d="M138.146 58.9792L143.027 73.0601H143.22L148.101 58.9792H150.189L144.151 75.7065H142.096L136.059 58.9792H138.146Z" stroke="#70E0DD" stroke-opacity="0.18" stroke-width="2" mask="url(#path-7-outside-1_631_808)"/>
<path d="M160.393 58.9792V75.7065H158.402V58.9792H160.393Z" stroke="#70E0DD" stroke-opacity="0.18" stroke-width="2" mask="url(#path-7-outside-1_631_808)"/>
<path d="M179.029 63.161C178.932 62.3333 178.542 61.6908 177.857 61.2334C177.171 60.7761 176.331 60.5474 175.336 60.5474C174.608 60.5474 173.971 60.6672 173.425 60.9067C172.884 61.1463 172.461 61.4757 172.156 61.895C171.857 62.3143 171.707 62.7907 171.707 63.3244C171.707 63.7708 171.811 64.1547 172.02 64.476C172.234 64.7918 172.507 65.0559 172.839 65.2682C173.171 65.4752 173.519 65.6467 173.882 65.7828C174.246 65.9135 174.581 66.0197 174.886 66.1013L176.556 66.5587C176.984 66.6731 177.46 66.831 177.985 67.0324C178.515 67.2339 179.021 67.5089 179.502 67.8574C179.989 68.2004 180.391 68.6415 180.707 69.1805C181.022 69.7196 181.18 70.3812 181.18 71.1653C181.18 72.0691 180.947 72.8859 180.482 73.6155C180.022 74.3452 179.347 74.9251 178.459 75.3552C177.576 75.7854 176.502 76.0005 175.239 76.0005C174.062 76.0005 173.042 75.8072 172.18 75.4206C171.324 75.034 170.65 74.4949 170.157 73.8034C169.67 73.1119 169.395 72.3087 169.33 71.394H171.386C171.439 72.0256 171.648 72.5483 172.012 72.9621C172.381 73.3705 172.847 73.6754 173.409 73.8769C173.976 74.0729 174.586 74.1709 175.239 74.1709C175.999 74.1709 176.682 74.0457 177.287 73.7952C177.891 73.5393 178.37 73.1854 178.724 72.7334C179.077 72.2761 179.253 71.7424 179.253 71.1326C179.253 70.5772 179.101 70.1253 178.796 69.7768C178.491 69.4283 178.089 69.1451 177.592 68.9273C177.094 68.7095 176.556 68.519 175.978 68.3556L173.955 67.7675C172.67 67.3918 171.653 66.8555 170.904 66.1585C170.155 65.4615 169.78 64.5495 169.78 63.4224C169.78 62.4858 170.029 61.6691 170.527 60.9721C171.03 60.2697 171.704 59.7252 172.55 59.3386C173.401 58.9465 174.351 58.7505 175.4 58.7505C176.46 58.7505 177.402 58.9438 178.226 59.3304C179.05 59.7115 179.703 60.2343 180.185 60.8986C180.672 61.5629 180.929 62.317 180.956 63.161H179.029Z" stroke="#70E0DD" stroke-opacity="0.18" stroke-width="2" mask="url(#path-7-outside-1_631_808)"/>
<path d="M203.979 67.3428C203.979 69.107 203.666 70.6316 203.04 71.9167C202.413 73.2017 201.554 74.1927 200.462 74.8897C199.371 75.5867 198.124 75.9351 196.721 75.9351C195.319 75.9351 194.072 75.5867 192.98 74.8897C191.888 74.1927 191.029 73.2017 190.403 71.9167C189.777 70.6316 189.464 69.107 189.464 67.3428C189.464 65.5786 189.777 64.054 190.403 62.769C191.029 61.4839 191.888 60.4929 192.98 59.7959C194.072 59.099 195.319 58.7505 196.721 58.7505C198.124 58.7505 199.371 59.099 200.462 59.7959C201.554 60.4929 202.413 61.4839 203.04 62.769C203.666 64.054 203.979 65.5786 203.979 67.3428ZM202.052 67.3428C202.052 65.8944 201.814 64.672 201.338 63.6756C200.867 62.6791 200.227 61.925 199.419 61.4131C198.616 60.9013 197.717 60.6454 196.721 60.6454C195.726 60.6454 194.824 60.9013 194.016 61.4131C193.213 61.925 192.573 62.6791 192.097 63.6756C191.626 64.672 191.39 65.8944 191.39 67.3428C191.39 68.7912 191.626 70.0136 192.097 71.0101C192.573 72.0065 193.213 72.7607 194.016 73.2725C194.824 73.7843 195.726 74.0403 196.721 74.0403C197.717 74.0403 198.616 73.7843 199.419 73.2725C200.227 72.7607 200.867 72.0065 201.338 71.0101C201.814 70.0136 202.052 68.7912 202.052 67.3428Z" stroke="#70E0DD" stroke-opacity="0.18" stroke-width="2" mask="url(#path-7-outside-1_631_808)"/>
<path d="M212.979 75.7065V58.9792H218.534C219.819 58.9792 220.873 59.2024 221.698 59.6489C222.522 60.09 223.132 60.6971 223.528 61.4703C223.924 62.2435 224.122 63.1229 224.122 64.1084C224.122 65.094 223.924 65.9679 223.528 66.7302C223.132 67.4926 222.525 68.0915 221.706 68.5271C220.887 68.9573 219.84 69.1724 218.567 69.1724H214.071V67.3428H218.502C219.38 67.3428 220.087 67.2121 220.622 66.9508C221.162 66.6894 221.553 66.3191 221.794 65.84C222.04 65.3554 222.163 64.7782 222.163 64.1084C222.163 63.4387 222.04 62.8534 221.794 62.3524C221.548 61.8515 221.154 61.4649 220.614 61.1926C220.073 60.9149 219.359 60.7761 218.47 60.7761H214.97V75.7065H212.979ZM220.718 68.1922L224.764 75.7065H222.452L218.47 68.1922H220.718Z" stroke="#70E0DD" stroke-opacity="0.18" stroke-width="2" mask="url(#path-7-outside-1_631_808)"/>
<path d="M231.127 58.9792H233.407L237.967 66.7874H238.16L242.72 58.9792H245L239.059 68.813V75.7065H237.068V68.813L231.127 58.9792Z" stroke="#70E0DD" stroke-opacity="0.18" stroke-width="2" mask="url(#path-7-outside-1_631_808)"/>
</svg>
