<svg width="582" height="404" viewBox="0 0 582 404" fill="none" xmlns="http://www.w3.org/2000/svg">
<path d="M160.5 90.5L110 178.5L178.5 258.5L264.5 209.5V110L160.5 90.5Z" fill="#70E0DD"/>
<path d="M370 90.5L420.5 178.5L352 258.5L266 209.5V110L370 90.5Z" fill="#008480"/>
<path d="M315.632 360.32L214.173 359.779L179.411 260.361L264.982 210.615L351.016 260.599L315.632 360.32Z" fill="#00A4A0"/>
<path d="M110 239V181L178 260.5L212.5 359.5L161.5 328L110 239Z" fill="#3FC4C0"/>
<path d="M420.5 239V181L352.5 260.5L318 359.5L369 328L420.5 239Z" fill="#005957"/>
<path d="M212.203 60.3438L162 89.3889L264.866 108.436L367.835 88.7215L315.03 60.3517L212.203 60.3438Z" fill="#CDF8F6"/>
<path d="M370 89L420.5 177L352 257L266 208V108.5L370 89Z" fill="#008480"/>
<path d="M315.632 360.32L214.173 359.779L179.411 260.361L264.982 210.615L351.016 260.599L315.632 360.32Z" fill="#00A4A0"/>
</svg>
