<svg width="472" height="404" viewBox="0 0 472 404" fill="none" xmlns="http://www.w3.org/2000/svg">
<path d="M50.5 90.5L0 178.5L68.5 258.5L154.5 209.5V110L50.5 90.5Z" fill="#70E0DD"/>
<path d="M260 90.5L310.5 178.5L242 258.5L156 209.5V110L260 90.5Z" fill="#008480"/>
<path d="M205.632 360.32L104.173 359.779L69.4114 260.361L154.982 210.615L241.016 260.599L205.632 360.32Z" fill="#00A4A0"/>
<path d="M0 239V181L68 260.5L102.5 359.5L51.5 328L0 239Z" fill="#3FC4C0"/>
<path d="M310.5 239V181L242.5 260.5L208 359.5L259 328L310.5 239Z" fill="#005957"/>
<path d="M102.203 60.3438L52 89.3889L154.866 108.436L257.835 88.7215L205.03 60.3517L102.203 60.3438Z" fill="#CDF8F6"/>
<path d="M260 89L310.5 177L242 257L156 208V108.5L260 89Z" fill="#008480"/>
</svg>
