<svg width="604" height="604" viewBox="0 0 604 604" fill="none" xmlns="http://www.w3.org/2000/svg">
<circle cx="302" cy="302" r="301.5" stroke="white" stroke-opacity="0.6"/>
<g filter="url(#filter0_n_646_8209)">
<circle cx="302" cy="302" r="286" fill="#005957"/>
</g>
<circle cx="302" cy="302" r="36" fill="#00A4A0"/>
<circle cx="302" cy="302" r="23" fill="#CDF8F6"/>
<path d="M441.934 312.772H439.245C440.761 289.037 436.645 266.546 427.832 244.628C428.634 243.538 429.052 243.02 430.157 244.244C431.006 245.179 433.404 252.015 434.051 253.797C437.642 263.68 439.751 274.088 441.341 284.476L458.473 282.585C459.518 281.139 455.806 264.609 455.064 261.702C445.7 224.855 421.035 189.575 388.534 169.742L378.691 184.428C392.913 192.973 406.644 206.307 416.251 219.843C417.39 221.451 421.789 227.472 422.153 228.744C422.625 230.392 421.749 230.917 420.111 230.836C404.602 205.035 380.692 184.449 352.449 173.664L354.059 171.067L375.969 182.155C376.69 182.491 376.919 181.832 377.33 181.441C380.207 178.71 383.003 171.195 386.048 167.973C344.641 140.631 290.271 136.393 244.107 154.215L251.168 170.987C257.548 168 264.689 165.988 271.568 164.494C287.899 160.949 304.46 160.263 321.053 162.368C323.088 162.624 338.934 165.423 338.968 166.641C338.968 166.762 338.153 168.82 337.297 168.376C304.204 160 269.23 163.754 238.764 179.127C238.03 180.156 245.448 192.959 246.775 194.903C284.713 175.81 328.963 177.452 365.162 199.626L376.649 208.292L374.985 209.852C324.543 168.982 246.458 178.697 208.534 231.267C208.366 233.056 220.412 240.12 222.238 242.172C232.735 228.676 246.243 217.085 262.264 210.66L262.938 213.324C225.047 229.558 201.891 269.634 205.745 310.781L223.282 309.119L223.747 308.453C222.09 299.532 224.151 290.672 225.263 281.885L227.864 282.646C228.308 283.366 226.071 294.803 225.937 297.009C224.313 324.842 239.169 352.721 263.329 366.546L262.561 369.258C241.54 357.747 227.426 335.734 223.841 312.194L206.473 314.198C207.497 323.355 210.151 332.249 213.823 340.658C213.358 341.52 211.856 342.118 211.162 341.654C210.825 341.432 208.642 335.222 208.258 334.139C199.661 310.014 201.224 282.673 211.903 259.469C214.335 254.188 217.771 249.472 220.25 244.244L205.765 234.18C200.308 243.686 194.191 253.024 191.3 263.754L188.262 264.407C195.68 239.743 212.253 218.222 233.132 203.387C235.005 202.062 244.242 196.989 244.026 195.657C241.055 191.869 239.33 185.929 236.622 182.181C236.177 181.569 236.083 181.065 235.14 181.159C233.705 181.3 219.085 191.479 216.875 193.195C193.84 211.104 176.034 238.499 168.805 266.809C152.844 329.295 182.01 393.942 238.764 423.382L238.05 425.669C228.227 421.861 220.25 414.703 211.573 408.944C209.996 410.788 200.113 421.054 200.685 422.319C216.868 436.084 236.561 446.774 257.056 452.721C259.172 453.333 270.935 456.758 271.777 455.513L275.065 438.432C272.195 438.721 252.886 433.386 252.212 432.343C250.42 429.585 255.298 429.766 256.874 430.352L261.995 414.212C221.47 399.747 190.66 363.6 183.741 320.98C181.814 309.126 181.235 294.083 183.654 282.303C184.193 279.692 183.654 278.683 186.908 279.181C174.127 345.812 221.49 410.128 288.937 417.509C318.81 420.778 350.772 412.362 373.847 393.074L362.865 379.302C322.697 411.763 262.17 405.755 227.931 367.549C226.637 366.102 218.499 356.051 219.199 355.109L221.813 354.477C243.555 388.499 284.793 403.959 324.18 395.092C354.032 388.371 380.126 366.055 391.148 337.624L374.648 330.917C362.912 361.945 330.6 381.664 297.561 379.995C294.839 379.861 277.605 377.317 277.079 375.582C275.678 370.913 284.356 376.443 285.487 374.613L288.438 357.854C249.854 348.604 231.663 304.497 252.556 270.496C263.793 252.203 285.824 241.109 307.283 243.518L309.263 226.53C308.697 224.842 299.683 225.279 297.554 225.4C269.48 227.035 245.859 243.995 232.991 268.396L231.3 267.757C230.343 266.587 236.353 257.726 237.478 256.119C271.447 207.773 343.778 213.109 371.698 264.34L387.368 256.603C375.349 233.44 353.338 215.356 328.033 208.453C311.103 203.831 294.118 203.919 277.086 207.935L276.379 205.278C318.938 194.392 363.66 212.247 386.607 249.411C392.623 259.153 396.74 269.998 399.192 281.193C399.731 283.648 399.772 287.86 400.29 289.501C400.56 290.362 401.079 290.524 401.894 290.638C403.774 290.907 410.167 289.494 412.647 289.266C414.533 289.091 416.473 289.367 418.36 289.259C416.062 265.645 406.159 243.544 391.114 225.42C389.915 223.974 386.243 221.579 386.735 219.729L388.406 218.713C421.385 252.089 430.42 303.582 412.977 347.043L429.8 353.098L436.577 328.279L439.218 328.232C437.932 339.071 433.835 350.319 429.247 360.27C414.883 391.405 388.345 417.031 356.741 430.345C355.488 432.101 362.447 444.15 362.528 447.171C397.286 432.511 427.266 405.553 443.294 371.263C444.959 371.047 446.164 371.39 445.666 373.281C444.561 377.499 432.926 393.733 433.128 395.045L446.98 404.713C506.227 325.965 484.048 206.966 401.847 153.542L403.235 150.857C420.132 162.644 435.27 176.732 447.573 193.248C475.512 230.762 487.922 278.3 481.623 324.869L499.793 326.894C501.296 310.202 501.538 294.204 499.78 277.512C499.584 275.689 497.833 270.274 499.099 269.419L501.134 269.103C512.641 335.996 487.41 405.964 437.265 450.952L447.997 463.674C449.621 464.481 453.124 460.418 454.377 459.274L455.866 460.936L455.179 462.422C399.758 515.12 318.352 536.077 244.107 515.699L239.384 533.171C248.102 534.819 256.719 536.945 265.498 538.344C270.45 539.131 275.813 539.252 280.623 540.073C282.617 540.416 283.089 541.264 282.105 543.262C229.683 538.674 180.049 517.495 140.811 482.807L129.088 495.785C206.742 566.836 328.929 582.39 421.688 532.061L413.9 517.098C403.794 521.195 394.025 526.133 383.737 529.82C356.417 539.609 326.982 544.13 297.931 543.915V541.23C327.434 541.311 356.855 536.649 384.519 526.564C427.913 510.741 466.356 481.939 494.067 445.179L496.425 446.821C474.865 474.788 447.869 498.765 416.366 515.033L424.437 530.184C425.717 530.984 433.317 526.181 434.987 525.212C482.458 497.709 522.538 450.824 543.195 400.111C578.296 313.963 565.023 212.241 506.194 140.12L493.049 151.14C508.848 172.393 522.06 195.146 530.94 220.2C544.946 259.711 548.827 305.237 540.635 346.491C540.311 348.113 538.957 355.782 538.492 356.448C537.657 357.652 535.77 357.182 535.622 356.139C535.42 354.632 538.223 345.112 538.64 342.488C546.617 292.926 540.318 241.836 517.977 196.807L502.785 203.912C501.821 205.426 507.251 215.638 508.195 218.04C533.459 282.195 528.811 354.275 493.824 413.808L509.151 422.931C518.132 406.462 526.513 389.421 531.425 371.229L534.086 371.935C529.855 386.951 523.454 402.217 516.057 416.028C514.878 418.228 506.665 433.137 505.776 433.635C505.453 433.816 504.496 433.83 504.179 433.709C501.053 432.572 507.534 427.196 507.197 424.99L492.153 416.957C488.003 422.319 484.621 428.232 480.558 433.655C478.881 435.895 467.912 450.111 466.498 449.835L465.81 447.151C494.013 415.773 513.012 375.689 519.197 333.816C527.531 277.378 513.571 217.804 479.271 172.339L465.77 182.397C465.231 182.888 465.568 183.231 465.79 183.736C466.578 185.518 469.785 189.091 471.14 191.197C483.368 210.283 493.453 231.993 497.772 254.302L495.124 254.262C489.047 227.257 476.617 201.651 459.511 179.948L459.423 178.374C462.125 177.001 462.078 179.753 464.369 180.331L477.493 170.892L477.479 169.433C448.165 130.809 405.903 101.416 358.513 89.6491L358.492 86.3189C419.431 102.539 473.053 145.092 500.474 201.894L516.542 193.504C508.484 177.755 498.682 162.974 487.659 149.162C486.312 147.473 479.891 141.244 480.275 139.75C481.016 138.943 481.124 138.445 482.303 139.05C484.648 140.261 488.333 146.343 490.354 148.496L491.338 148.785L504.24 137.348C460.885 83.2242 395.716 48.8727 326.524 41.9903C321.094 41.4521 314.828 41.8894 309.667 40.6784L309.378 38.6265C437.157 40.8399 546.072 139.454 562.955 265.497C586.664 442.448 432.495 590.692 256.201 560.391C117.083 536.481 22.2488 405.331 40.9852 265.497C57.8755 139.467 166.81 40.8062 294.569 38.6265V41.3108C188.525 43.3022 93.2731 112.954 57.2085 211.81C23.7378 303.555 44.4953 406.69 110.527 478.071C112.346 480.035 125.08 493.154 126.138 493.444C126.946 493.666 127.546 493.565 128.017 492.832L138.433 480.486C108.082 453.273 85.5118 417.979 71.8958 379.598L74.1258 378.683C75.1095 378.885 80.7351 394.756 81.8198 397.218C108.762 458.265 166.143 512.887 231.481 530.654C232.89 531.038 236.123 532.491 237.046 531.166L241.432 515.416C232.243 512.039 222.871 509.126 213.85 505.264C133.623 470.926 78.6398 389.212 79.9266 301.355H82.6148C81.9545 328.959 88.0517 356.233 97.43 381.993L114.246 375.938C113.896 373.005 111.693 370.536 111.538 367.549C111.444 365.793 112.912 366.6 114.172 366.614C120.748 386.904 131.318 406.018 144.47 422.743L142.509 424.68C131.433 410.539 121.832 394.877 115.587 377.963L98.7707 384.691C109.719 410.882 125.626 435.054 145.628 455.183L157.937 443.383L152.615 436.756L154.306 435.095L176.613 455.836L178.183 455.601L188.275 442.145L175.758 431.428C148.007 404.228 128.671 368.37 122.964 329.625L105.535 331.63C104.282 332.915 109.112 347.844 108.924 350.75C108.856 351.779 107.563 352.439 107.186 352.418C106.195 352.371 103.366 337.88 103.008 335.774C100.381 320.267 99.2289 303.555 100.799 287.927L81.6177 286.581L80.1085 285.599C82.0084 262.92 86.6976 240.403 95.4156 219.399L78.5994 212.671C75.8775 220.852 72.8525 228.912 70.5685 237.247C59.3577 278.131 58.9872 321.828 69.8611 362.853C69.6927 364.468 68.6215 364.717 67.1527 364.528C66.2432 358.641 64.5387 352.93 63.4338 347.07C45.8158 253.986 83.3559 159.684 159.777 104.598C161.798 103.138 174.585 94.1499 175.784 94.3921C179.113 97.4734 173.568 97.7021 172.16 100.104L181.841 114.515C199.924 103.064 219.765 93.0937 240.725 88.3507L240.651 90.961C211.627 98.9131 184.125 113.586 161.434 133.13C161.111 134.832 170.752 144.722 172.429 146.774C179.18 141.385 186.274 135.512 193.679 131.071C194.811 130.392 200.402 126.275 201.022 129.006L172.308 150.064C170.59 150.212 159.224 135.444 157.338 133.117L177.833 117.253C178.661 116.661 178.897 116.042 178.735 115.039C178.318 112.348 170.772 104.679 170.058 101.113C129.816 127.156 97.9892 165.86 79.8862 210.249L96.7024 216.667L104.154 199.216L106.822 199.889C94.2366 226.207 84.8179 254.484 83.2683 283.877L100.765 285.222L106.121 252.055L108.836 251.631C103.433 276.894 100.26 303.407 105.205 328.952L121.179 326.779L122.243 325.784C119.535 302.439 120.445 278.495 126.38 255.708L146.511 260.364C150.001 245.926 156.253 232.343 163.428 219.419L166.036 220.051C163.267 226.201 159.662 232.02 156.974 238.209C136.082 286.292 140.495 341.755 168.448 385.956C172.672 392.63 177.886 398.536 182.185 405.15C181.444 405.957 181.336 406.462 180.15 405.849C178.628 405.069 171.911 396.088 170.449 394.036C143.836 356.603 134.822 307.74 145.575 263.028L128.361 258.352C116.254 310.047 126.629 364.407 158.086 407.06C178.5 434.738 206.722 455.755 238.724 468.343C238.906 469.439 238.455 470.704 237.148 470.583C235.423 470.422 226.321 465.975 223.996 464.878C212.172 459.308 201.211 452.217 190.694 444.527L179.497 458.574L198.334 470.711C198.166 471.592 198.078 473.671 196.758 473.294C194.049 472.514 183.162 464.447 180.231 462.234C173.258 456.966 166.878 450.925 160.322 445.166L147.885 457.585C180.797 489.851 223.585 511.582 269.439 518.282C333.342 527.62 398.364 508.729 446.623 466.318L434.28 453.266C416.231 469.318 394.813 482.276 371.96 490.174L371.273 487.49C430.932 466.311 477.904 414.293 494.221 353.246C495.751 347.521 497.408 340.934 498.25 335.101C498.399 334.092 499.167 330.278 498.486 329.894C493.487 329.961 487.309 327.56 482.573 327.593C481.697 327.6 481.347 327.869 481.077 328.697C480.141 331.569 479.952 336.763 479.15 340.208C465.265 400.003 423.548 449.492 365.647 470.738L364.549 468C396.585 456.69 425.609 434.859 445.282 407.235L431.477 397.413L430.487 397.743C409.803 425.185 380.254 445.993 347.053 455.56C328.431 460.922 308.502 463.176 289.2 461.252L289.186 458.588C313.184 460.956 337.351 456.616 359.813 448.463L353.776 431.704C352.604 430.829 344.499 437.066 343.691 432.727C351.533 429.39 359.483 426.443 367.015 422.42C393.553 408.245 416.352 384.106 427.738 356.172L411.959 349.155L395.48 376.618L393.58 374.842C399.954 365.087 406.549 355.479 410.814 344.547C417.093 328.448 420.57 309.153 418.279 292.051L400.883 293.302V310.774L398.168 309.644C398.768 297.036 397.966 285.384 394.335 273.301C392.94 268.652 390.825 264.333 389.437 259.704C388.776 259.126 374.062 266.351 373.591 267.091C372.647 268.565 377.923 277.862 378.01 280.863C377.842 281.509 376.178 281.293 375.72 281.132C375.059 280.903 371.307 270.179 370.404 268.296C359.685 245.98 337.486 229.376 312.706 226.389C311.999 226.9 310.26 242.589 311.001 243.619C367.089 253.172 378.327 329.255 326.868 353.764L326.47 351.08C365.129 332.081 368.255 277.001 331.247 254.309C302.061 236.413 263.113 248.711 250.501 280.54C234.48 320.953 268.321 362.846 310.995 355.89L312.733 358.144C306.083 360.088 298.713 359.052 291.854 358.749L287.839 375.932C336.057 385.418 381.002 345.374 378.01 296.646H380.698C381.211 307.612 379.304 318.464 376.009 328.878L392.812 334.953L395.157 326.201L398.209 325.891C394.106 341.372 386.405 356.011 375.666 367.885C372.398 371.498 368.282 374.613 365.27 378.206L375.976 391.089C379.789 390.981 381.278 383.527 384.721 387.698C353.837 417.751 306.366 429.094 265.276 415.006L259.003 431.394C259.118 432.525 272.895 435.68 275.031 436.104C292.407 439.508 311.588 439.643 328.882 435.741L329.515 438.028C329.219 438.916 328.518 438.835 327.845 439.071C325.298 439.952 316.789 440.954 313.777 441.15C301.832 441.917 289.698 440.8 277.841 439.871L274.074 458.615C272.842 460.424 266.509 457.262 264.292 457.915C264.696 462.705 261.146 468.699 260.95 473.126C260.917 473.893 260.809 474.593 261.59 475.064C290.763 481.899 321.464 480.681 350.414 473.375L349.99 476.086L321.485 481.435L323.573 498.833L356.148 492.845C357.799 492.488 357.138 494.439 357.078 495.469C336.711 500.77 315.691 503.596 294.569 502.93V500.245L320.178 499.256L318.79 481.428C301.933 483.036 284.719 482.256 268.004 479.383C267.034 479.403 266.832 479.8 266.434 480.553C264.609 484.032 265.127 492.273 262.938 496.202L279.047 498.94L279.094 501.577C255.156 499.162 232.148 491.486 210.461 481.415C211.647 476.813 213.25 479.699 215.588 480.675C221.591 483.177 227.547 485.942 233.664 488.156C237.215 489.441 257.77 496.168 259.832 495.489C260.869 495.146 260.782 494.11 261.051 493.302C261.59 491.695 264.13 478.643 263.598 478.091L253.283 476.039C251.249 471.579 257.885 474.384 258.235 474.034L261.651 456.966C235.618 449.754 210.987 436.824 191.631 417.912L192.648 416.244C194.561 415.739 196.555 419.204 198.017 420.26L209.046 406.596C197.586 395.576 187.11 383.655 179.396 369.661C138.777 295.987 170.934 203.885 248.156 171.989L241.742 156.172C240.961 155.244 239.236 156.367 238.266 156.764C213.587 166.863 190.573 186.38 174.808 207.632C174.141 208.137 172.759 206.515 172.874 205.722C172.968 205.103 179.463 197.05 180.507 195.845C200.645 172.695 229.71 154.268 259.434 146.323C270.484 143.37 281.789 141.842 293.148 140.685L292.555 123.287C238.32 125.716 187.184 154.289 156.078 198.335C146.248 212.254 139.134 227.142 132.74 242.878L131.009 241.768C137.645 219.937 150.304 200.38 164.574 182.74L152.588 171.989L150.567 171.976C134.552 191.419 121.179 213.371 113.559 237.523L110.864 236.494C113.202 229.995 115.513 223.402 118.376 217.118C121.617 209.987 125.969 203.32 129.095 196.256L112.225 186.44C120.519 170.415 133.023 156.468 145.534 143.457L146.922 146.128C137.584 155.473 128.482 165.847 121.098 176.826C120.101 178.306 115.432 184.482 116.315 185.72L131.345 193.888C138.965 181.092 148.741 169.668 158.995 158.91L160.626 161.157L153.275 169.634C156.219 170.321 164.708 180.728 166.972 180.298C167.605 180.177 174.336 172.366 175.798 170.98C228.908 120.731 307.222 105.621 374.925 135.296L382.733 119.271C329.414 95.8789 266.893 97.1303 214.49 122.332L213.163 119.937C233.314 110.411 254.092 104.551 276.163 101.194C278.676 100.81 282.665 102.304 282.503 98.792L281.122 82.9685L256.537 86.8369C255.635 86.4198 255.291 85.5721 255.567 84.6504C255.931 83.4327 270.349 81.3472 272.801 81.031C293.087 78.4475 314.714 79.0463 334.952 81.6163L336.879 64.2387C287.219 56.4951 234.843 65.3689 190.613 88.9965L189.697 86.736C190.094 84.8388 214.557 74.8617 218.196 73.5363C305.504 41.7279 404.063 62.3348 470.58 126.638L469.193 129.309C434.159 95.2936 388.325 71.6257 339.662 64.8105L337.647 82.2823L343.704 82.9618L342.592 85.5923C324.759 82.8945 305.558 81.0108 287.488 82.2554C286.626 82.3159 284.012 82.4707 283.79 83.4058L285.164 100.434C347.086 94.8294 410.315 119.735 451.366 165.948L448.704 166.647C434.981 152.378 419.573 139.501 402.453 129.457C398.788 127.311 389.201 121.666 385.65 120.691C384.364 120.341 384.936 120.798 384.613 121.451C382.255 126.301 380.247 131.374 378.071 136.312L390.131 142.777L388.467 145.381C360.392 129.437 327.629 121.841 295.256 123.274L295.93 140.752C368.935 137.644 435.877 186.097 456.257 255.802C466.026 289.198 464.732 325.171 452.7 357.774L450.678 357.451C449.216 356.515 452.026 351.51 452.511 349.855C458.703 328.919 461.525 307.753 459.437 285.875L441.94 287.221V312.752L441.934 312.772Z" fill="#70E0DD" fill-opacity="0.24"/>
<defs>
<filter id="filter0_n_646_8209" x="16" y="16" width="572" height="572" filterUnits="userSpaceOnUse" color-interpolation-filters="sRGB">
<feFlood flood-opacity="0" result="BackgroundImageFix"/>
<feBlend mode="normal" in="SourceGraphic" in2="BackgroundImageFix" result="shape"/>
<feTurbulence type="fractalNoise" baseFrequency="1 1" stitchTiles="stitch" numOctaves="3" result="noise" seed="5608" />
<feColorMatrix in="noise" type="luminanceToAlpha" result="alphaNoise" />
<feComponentTransfer in="alphaNoise" result="coloredNoise1">
<feFuncA type="discrete" tableValues="1 1 1 1 1 1 1 1 1 1 1 1 1 1 1 1 1 1 1 1 1 1 1 1 1 1 1 1 1 1 1 1 1 1 1 1 1 1 1 1 1 1 1 1 1 1 1 1 1 1 1 0 0 0 0 0 0 0 0 0 0 0 0 0 0 0 0 0 0 0 0 0 0 0 0 0 0 0 0 0 0 0 0 0 0 0 0 0 0 0 0 0 0 0 0 0 0 0 0 0 "/>
</feComponentTransfer>
<feComposite operator="in" in2="shape" in="coloredNoise1" result="noise1Clipped" />
<feFlood flood-color="rgba(0, 0, 0, 0.25)" result="color1Flood" />
<feComposite operator="in" in2="noise1Clipped" in="color1Flood" result="color1" />
<feMerge result="effect1_noise_646_8209">
<feMergeNode in="shape" />
<feMergeNode in="color1" />
</feMerge>
</filter>
</defs>
</svg>
