<svg width="553" height="416" viewBox="0 0 553 416" fill="none" xmlns="http://www.w3.org/2000/svg">
<g clip-path="url(#clip0_519_16704)">
<path d="M491.58 17.9597C490.156 19.4207 485.91 21.791 485.124 22.8712C483.444 25.187 484.782 30.9611 481.29 33.3159C487.963 31.8393 494.566 30.0519 501.232 28.4899C503.231 28.0236 505.494 26.7568 507.368 26.4615C522.519 24.0757 520.8 36.2379 512.478 43.8072C511.646 44.561 510.098 44.7941 509.577 45.5713C508.737 46.8225 507.905 51.9904 507.042 54.112C503.161 63.6086 495.601 69.3671 485.902 72.1493C484.533 81.3894 480.644 88.8188 472.361 93.4427C470.705 94.3675 464.428 96.4813 463.946 96.9709C463.277 97.6548 463.191 100.111 462.67 101.237C459.178 108.853 451.641 113.197 443.685 114.892C441.717 124.334 435.114 130.263 425.337 130.652C426.745 139.962 416.494 143.568 409.028 144.928C406.274 152.932 400.807 157.152 392.22 157.549C391.287 162.887 387.74 167.084 382.444 168.467C379.807 169.159 374.923 168.693 373.468 169.4C372.441 169.897 371.967 171.957 371.143 172.897C366.235 178.508 358.823 177.956 352.118 176.192C348.502 175.244 344.979 172.571 341.883 171.825C339.052 171.141 337.947 173.55 335.031 173.798C337.372 180.474 332.55 183.823 326.273 183.093C327.362 190.841 321.964 193.087 315.206 191.261C316.131 198.535 312.219 199.335 305.942 198.9C305.95 200.361 304.278 201.853 306.168 202.319C315.89 204.721 337.131 202.389 347.374 200.415C354.351 199.071 361.592 196.265 368.599 195.411C403.311 191.175 430.774 217.24 467.461 202.778C480.574 197.61 496.06 184.663 483.927 170.27C471.755 155.831 448.608 153.523 454.301 127.831C458.439 109.149 472.571 103.297 488.476 96.1549C507.368 87.6686 519.533 84.0705 538.596 95.7741C540.338 96.8466 543.853 99.1469 544.242 101.206C544.507 102.621 540.252 102.527 539.272 102.1L538.985 103.242C541.52 104.937 551.507 111.084 552.697 113.143C553.023 113.71 553.039 114.278 552.969 114.899L543.651 115.498L549.477 121.901C542.772 123.16 537.414 123.269 530.834 121.326L533.743 125.981C528.983 125.585 525.234 125.546 520.902 123.386C517.308 121.598 511.771 116.617 509.282 113.438C504.514 107.346 507.368 104.183 497.607 106.452C485.778 109.203 469.063 119.741 469.281 133.364C469.406 141.097 478.506 144.314 483.81 148.238C497.67 158.481 509.274 169.275 505.51 188.377C501.543 208.521 480.458 221.647 461.605 225.478C449.938 227.848 438.855 227.732 427.103 226.239C428.767 230.187 429.934 235.145 430.517 239.427C434.041 265.252 414.954 296.065 434.694 319.185C439.081 324.329 447.34 327.251 448.989 333.445C450.638 339.639 448.795 344.745 448.639 350.651C448.11 371.299 449.098 385.567 440.784 405.159C438.964 409.449 436.607 412.052 431.91 413.187C424.039 415.075 407.534 414.376 399.562 412.612C385.858 409.581 393.114 389.539 403.762 387.363C408.017 386.492 412.963 388.42 415.569 383.43C417.692 379.35 417.637 367.157 417.124 362.409C415.802 350.146 402.821 341.698 394.46 334.37C389.078 329.653 383.882 324.726 378.438 320.086C377.925 325.13 379.768 329.357 382.825 333.181C385.041 335.963 390.478 339.196 390.252 342.949C390.027 346.703 385.71 355.562 384.403 359.844C382.521 366.015 381.347 374.556 379.014 380.104C377.45 383.819 372.527 389.383 370.1 393.339C366.305 399.525 366.204 404.91 358.457 407.343C350.711 409.775 342.871 408.213 335.319 408.135C330.94 408.089 322.47 405.346 321.062 400.776C318.667 392.974 323.784 382.086 332.068 380.376C337.255 379.304 343.617 381.659 347.164 375.659C350.166 370.584 353.441 354.28 352.997 348.421C351.831 332.956 336.968 326.093 326.841 316.884C319.343 310.061 313.673 302.158 307.848 293.928C299.394 297.036 291.6 301.738 283.006 304.497C268.011 309.315 252.16 310.395 236.488 311.009C234.644 314.506 235.461 319.426 233.727 322.814C232.335 325.534 228.975 326.358 228.173 328.914C227.45 331.215 228.088 333.305 227.722 335.458C225.926 346.151 219.424 355.539 216.989 366.1C215.138 374.128 215.924 380.128 213.069 388.412C210.215 396.696 205.105 411.112 197.071 414.376C188.982 417.663 169.631 415.441 161.48 412.332C156.3 410.35 156.386 406.659 155.81 401.67L123.175 404.584C117.233 404.825 110.451 404.568 104.594 405.237C97.8508 406.006 95.8131 410.739 87.7788 409.682C85.3521 409.363 82.8633 407.856 80.5844 407.553C77.4345 407.133 72.2779 407.358 68.9568 407.483C51.2471 408.104 32.954 410.972 15.3609 411.578C13.7665 411.633 7.22545 411.959 6.58769 411.042L0 274.935L0.769989 274.266L43.5861 272.223C44.0216 270.171 44.3638 267.583 45.7016 265.889C50.2515 260.138 55.5326 258.529 61.3036 255.265C71.7801 249.344 77.4189 239.793 90.5787 240.197C93.2542 240.282 96.622 241.238 99.2975 241.378C106.484 241.767 112.924 240.422 119.978 240.212C118.835 236.917 117.077 233.902 115.895 230.607C112.94 222.408 111.454 213.083 112.348 204.456C103.987 199.654 103.886 189.598 105.434 181.103C97.7886 177.125 99.9275 169.058 98.4342 162.522C98.3175 162.009 96.6142 161.628 95.9531 160.206C94.3431 156.764 94.8409 151.059 95.6809 147.422C96.8164 142.55 97.2986 143.335 97.2598 137.918C97.2209 132.152 98.7842 128.134 98.9786 123.891C99.0564 122.158 97.0809 116.578 96.7464 113.959C86.6977 35.3519 193.081 2.09061 222.854 86.9304C223.048 87.4899 222.924 88.267 223.709 88.0961C227.341 78.1021 235.298 68.3413 243.581 61.6269C248.497 57.6479 256.111 52.0681 261.789 49.5269C295.139 34.5748 331.438 42.3151 366.6 35.453C391.139 30.6658 419.279 23.9048 443.413 17.2758C459.505 12.8539 474.671 5.66542 490.374 0.139998C503.176 -1.60855 496.627 12.7607 491.58 17.9519V17.9597ZM494.108 3.59047C485.754 4.60852 478.311 8.92939 470.518 11.7582C440.372 22.6924 410.311 28.6297 379.185 35.8182C355.642 41.2504 337.605 43.7916 313.137 43.8305C279.817 43.8849 241.061 55.3787 227.683 89.456C224.922 96.4813 226.058 101.735 225.451 108.791C225.062 113.299 222.332 123.697 224.417 127.326C224.852 128.08 225.024 128.523 226.035 128.321C228.383 122.539 228.282 116.143 229.838 110.26C236.099 86.5262 257.806 67.5797 280.696 60.2902C288.956 57.6635 295.061 58.3862 303.251 57.7878C306.992 57.5158 310.78 56.2413 314.614 56.6221C314.902 54.9901 314.264 55.6507 313.339 55.3088C309.746 54.0032 309.217 54.9202 306.191 54.9047C302.201 54.8813 298.204 54.8736 294.221 54.8736C299.674 49.8611 314.109 56.7931 315.206 47.3043C311.363 47.1255 307.109 47.0634 303.306 46.667C302.746 46.6126 301.112 46.4106 301.221 45.5635C306.495 44.732 311.916 44.8796 317.267 44.9496C324.687 45.0428 331.158 45.579 338.803 44.9651C348.65 44.1802 390.042 36.1058 395.876 39.7894C396.521 40.1935 396.63 41.3203 397.206 41.4835C398.1 41.7322 400.604 41.5302 401.74 41.468C423.261 40.2634 446.983 36.1835 466.862 27.9225C477.424 23.5317 492.723 16.2344 494.1 3.59047H494.108ZM388.059 53.1328C402.284 49.83 416.938 48.1514 431.295 45.3848C442.759 43.1777 462.406 40.1469 472.672 36.0669C477.012 34.3417 480.217 30.4715 480.699 25.7388C474.026 28.8629 467.391 32.3833 460.454 34.9168C440.045 42.3617 418.026 42.6726 396.638 44.9729C394.514 48.4778 392.539 49.6823 389.202 51.6795C388.463 52.1225 387.725 51.563 388.051 53.125L388.059 53.1328ZM514.998 31.0699L512.315 29.9276C482.472 37.4114 452.699 44.7397 422.312 50.3895C399.508 54.6327 373.616 60.5777 350.438 60.1503C346.363 60.0726 341.611 58.7282 337.356 59.8317C338.111 60.5777 337.504 61.1373 338.803 61.3238C363.342 64.8908 387.67 56.2646 412.263 58.3551C417.241 58.7748 417.754 61.4637 419.831 61.86C422.079 62.2874 427.165 61.961 429.755 61.8989C453.99 61.3471 478.801 58.2852 500.462 46.939C506.334 43.8616 515.239 38.476 515.006 31.0699H514.998ZM203.114 59.1633C184.852 41.1805 156.891 34.9401 133.791 47.4131C108.102 61.2927 94.8487 90.3187 101.335 118.995C102.657 119.228 102.261 118.925 102.634 118.249C103.809 116.127 104.026 112.545 104.96 110.089C105.621 108.348 108.063 105.038 108.226 104.004C108.498 102.318 106.002 97.5616 105.947 94.795C105.737 83.713 115.817 68.5667 124.054 61.5725C157.84 32.8884 200.049 51.493 215.255 89.2695C217.767 95.5099 217.51 101.859 215.06 108.115C217.588 110.446 219.875 112.731 221.088 116.065C222.457 115.459 222.068 106.04 221.959 104.128C221.049 88.539 214.36 70.2375 203.114 59.1556V59.1633ZM392.71 42.6415C388.759 42.8047 384.722 42.4006 380.771 42.6415C368.56 43.3953 355.805 47.0478 343.462 47.8794C335.964 48.3845 328.272 47.6851 320.751 48.4855C318.659 49.0217 315.221 53.3426 317.943 54.7648C320.961 56.3424 326.693 55.0445 329.96 55.1067C343.236 55.3554 370.038 57.5858 381.448 52.0837C382.724 51.4697 394.538 44.3356 392.702 42.657L392.71 42.6415ZM504.6 49.6435C496.246 52.7753 487.971 56.5444 479.408 59.1245C468.278 62.4739 456.471 64.0049 444.859 64.7898C439.5 65.1551 419.069 64.6033 416.066 66.2974C413.788 67.5875 411.275 70.9758 407.861 71.2167L409.681 76.3769C420.865 76.0816 432.539 77.0219 443.693 76.4468C458.805 75.6619 490.413 71.411 499.832 58.5727C501.831 55.845 502.966 52.5733 504.592 49.6435H504.6ZM206.816 80.519C194.006 57.1583 165.688 44.8952 140.387 55.7595C127.709 61.2072 118.547 71.411 111.82 83.1379L117.738 80.3169C119.823 79.3766 122.996 80.4801 124.839 79.8429C125.213 79.7108 128.783 75.6153 130.642 74.5739C139.889 69.3904 146.314 68.7998 156.339 67.6341C161.503 67.0357 163.627 64.2769 169.499 66.2586C173.792 67.7041 174.476 67.9761 179.081 68.9164C183.117 69.7401 193.096 76.6877 197.755 78.8015C200.501 80.0449 203.845 80.0683 206.816 80.519ZM327.735 69.4526H306.463C305.911 67.9527 308.875 67.8595 309.738 67.774C317.181 67.0357 325.13 67.6341 332.278 64.6655C333.895 63.9894 334.938 63.22 335.023 61.2927C333.841 61.1684 332.721 60.5622 331.554 60.3757C315.454 57.8267 286.07 61.0596 271.487 68.5589C253.14 77.9933 236.962 91.9973 233.696 113.532C233.19 116.873 233.385 120.635 232.887 123.79C231.743 130.971 225.342 139.418 227.668 146.801C228.733 150.181 235.827 159.989 238.494 162.491C241.162 164.993 244.522 163.369 243.41 159.623C242.725 157.308 236.006 151.518 234.31 148.316C233.213 146.241 232.366 143.482 232.467 141.135C236.853 144.104 242.92 158.839 248.987 156.795C254.19 155.046 243.029 144.648 241.893 143.071C240.128 140.63 238.401 137.087 237.717 134.141C243.013 138.672 245.634 145.876 252.626 148.65C256.834 150.321 259.813 147.78 258.429 143.436C257.729 141.244 247.719 135.952 245.012 133.543C243.558 132.245 241.069 130.395 241.209 128.321C242.803 126.611 256.616 139.721 260.731 139.449C262.317 139.348 264.682 137.421 264.441 135.742C263.959 132.432 257.806 130.706 255.178 129.206C253.84 128.437 246.155 124.412 247.618 122.492C254.828 124.093 261.532 131.631 269.341 129.362C271.052 128.865 271.775 127.194 271.075 125.562C269.963 122.989 262.006 121.909 259.136 120.58C256.266 119.251 252.969 116.819 251.11 114.332C259.253 116.213 272.094 126.059 278.269 116.368C278.472 113.664 272.506 114.55 270.694 114.254C268.337 113.866 266.012 113.275 263.772 112.436C263.103 112.187 256.103 109.141 257.519 107.913C261.439 107.827 264.464 110.221 268.454 110.656C274.349 111.301 280.766 109.654 283.729 104.113C279.755 104.198 276.099 104.719 272.047 104.144C267.995 103.569 262.03 101.043 258.67 98.8516C257.985 98.4009 257.169 98.9915 257.519 97.4061C267.295 100.67 281.388 106.312 287.805 94.7716C288.326 92.9842 283.877 94.4763 282.882 94.5152C279.856 94.6318 276.006 94.7017 273.027 94.4142C271.293 94.251 262.489 92.7355 262.769 90.6995C262.932 89.5027 264.371 90.1399 264.977 90.2099C270.196 90.8083 274.458 92.0284 279.965 91.5932C284.118 91.2668 293.965 89.0208 290.387 83.4799C288.349 84.7388 272.187 83.783 272.086 81.9567C272.864 81.0941 274.738 81.1873 275.858 81.1174C283.216 80.6744 291.103 82.3764 296.228 75.8018C296.718 75.1723 300.848 67.4787 300.607 73.144C300.42 77.5348 297.986 80.62 294.284 82.625C294.976 85.0419 294.696 86.9692 293.646 89.2384C301.587 90.3187 310.477 92.8832 318.418 93.3184C321.731 93.5049 325.682 93.9634 328.031 91.2901C332.752 85.9123 320.821 87.1169 318.418 86.907C312.655 86.3941 306.487 85.9201 301.081 83.8529C299.821 83.3711 297.791 82.9126 297.146 81.6769C305.896 80.8765 319.491 86.3242 327.627 83.3089C330.108 82.3919 329.423 78.9647 326.452 78.2964C320.44 76.952 310.189 78.5295 302.831 77.426C302.092 77.3172 300.35 77.2706 300.638 76.1437C300.84 75.3666 314.856 75.965 316.691 75.8717C319.094 75.7474 326.094 75.2267 327.759 74.1154C329.625 72.872 329.649 69.9733 327.743 69.4371L327.735 69.4526ZM411.758 65.1939C412.333 64.5411 412.426 63.4143 413.095 62.7459C413.01 60.9274 398.606 61.1606 396.474 61.2694C381.246 62.0543 367.417 65.4659 351.605 64.8131C347.981 64.6655 340.919 62.847 337.761 63.6163C337.434 63.694 334.432 67.8206 332.698 67.9994C334.611 70.6183 338.165 70.8359 341.144 71.1934C355.844 72.9886 386.052 75.421 399.578 71.3644C402.417 70.5095 409.93 67.2922 411.758 65.1939ZM101.335 128.608C100.946 131.344 101.615 134.81 101.335 137.638L109.237 124.847L111.82 123.65C111.454 132.354 103.264 137.553 100.48 145.239C98.792 149.902 98.0842 154.836 98.4186 159.787C100.184 158.388 100.036 155.341 100.876 153.212C102.486 149.109 105.45 146.482 106.997 143.016C107.954 140.887 107.985 138.447 108.755 136.613C109.105 135.773 108.895 135.727 110.062 135.89C111.462 144.454 105.053 150.935 103.334 158.59C102.097 164.1 101.95 172.283 105.979 176.689C109.167 170.107 105.839 163.719 107.9 156.748C108.203 155.73 112.185 147.92 113.562 149.303C112.52 153.274 110.217 157.782 110.108 161.916C110.031 165.048 111.905 167.667 111.858 170.566C111.796 174.288 109.471 179.425 108.965 183.458C108.358 188.323 108.008 195.869 111.804 199.421C111.61 195.48 111.921 191.696 112.776 187.857C113.422 184.927 115.841 176.487 117.031 174.039C117.427 173.223 117.738 172.578 118.516 172.042C119.558 172.734 119.356 173.589 119.426 174.638C119.799 180.186 116.533 186.652 115.965 192.217C115.615 195.636 114.861 203.477 118.804 204.674C118.975 199.996 120.709 194.113 123.237 190.157C123.758 189.341 124.629 187.484 125.796 187.779C125.656 195.799 121.728 203.12 122.934 211.334L125.213 216.922C125.034 214.155 125.399 211.427 126.084 208.754C126.364 207.666 127.087 205.241 128.137 204.69V216.051C128.137 219.129 131.256 223.613 132.228 226.581L130.175 229.169C128.176 228.307 126.605 222.307 125.648 221.165C125.275 220.722 124.077 220.644 123.494 220.123C120.997 217.901 119.994 214.303 119.061 211.14C118.376 208.816 119.652 207.542 116.471 206.446V217.232C116.471 222.595 121.456 234.765 125.042 238.93C125.399 239.35 125.018 240.034 126.372 239.668C126.465 237.663 126.208 235.612 126.426 233.607C126.488 233.047 126.683 231.415 127.53 231.516C128.713 238.775 131.738 245.746 136.568 251.325C136.451 246.958 134.6 241.883 136.21 237.57C136.514 236.762 136.024 236.568 137.439 236.762C138.295 243.329 138.792 252.39 143.848 257.162C144.167 248.007 145.046 237.578 149.782 229.581C154.519 221.584 162.227 215.849 167.158 208.202C165.602 218.289 156.619 225.043 152.31 233.855C148.001 242.668 145.466 255.996 149.215 264.91C149.673 266.005 150.21 267.21 151.416 267.653C151.727 264.14 151.579 259.765 152.077 256.361C153.617 245.854 160.181 236.785 167.15 229.185C164.669 237.267 159.147 244.292 157.086 252.623C152.738 270.171 160.772 281.284 169.483 295.342C170.385 296.143 170.051 294.752 170.067 294.177C170.183 289.98 169.639 285.807 170.067 281.641C171.552 281.408 171.824 282.931 172.135 283.942C173.924 289.848 173.761 298.87 174.795 305.181C176.545 315.812 180.473 327.554 181.647 337.96C182.659 346.928 183.514 358.57 184.043 367.623C184.339 372.76 181.056 386.461 181.834 389.065C182.161 390.145 183.724 390.456 183.467 391.8C176.444 391.38 171.389 388.847 165.112 393.556C160.407 397.085 157.373 404.724 162.203 409.286L164.902 400.924C165.524 399.882 170.222 395.39 170.074 397.932C169.958 400.069 166.559 402.012 166.52 406.667C166.473 411.671 169.227 410.56 172.968 411.617C172.096 408.066 173.302 402.835 175.612 399.983C176.755 398.569 179.05 397.302 178.552 399.991C178.148 402.198 173.691 410.226 178.039 411.508C179.656 411.982 187.061 412.332 189.028 412.223C195.017 411.897 198.968 410.047 202.009 404.809C205.05 399.571 211.218 384.627 212.011 378.674C212.431 375.519 212.144 371.564 212.665 368.253C214.337 357.676 221.345 347.845 223.515 337.719C226.112 325.612 220.839 313.131 224.666 300.401C225.148 298.785 227.092 293.835 229.192 294.464C231.487 295.148 228.858 298.886 228.492 300.153C226.058 308.53 226.237 315.587 227.458 324.182C231.806 321.252 230.592 319.208 231.316 315.221C233.338 304.038 238.977 291.06 246.117 282.224C247.579 281.711 246.249 284.703 246.093 285.123C245.238 287.439 236.822 305.359 237.662 306.113C258.872 307.582 279.537 302.787 298.662 293.974C305.056 291.029 311.34 286.926 317.873 284.05C327.144 279.971 336.594 277.087 346.643 275.518C347.615 274.841 346.923 274.826 346.736 274.266C345.445 270.303 343.68 266.456 342.505 262.454C340.25 260.845 334.922 268.197 332.075 267.645C330.8 261.001 341.339 262.4 339.651 254.822C337.59 254.434 335.918 255.638 334.059 255.934C331.212 256.384 327.603 256.198 324.928 256.711C320.331 257.589 315.882 260.938 311.146 260.962C310.625 260.962 309.512 261.824 309.94 260.379C310.547 258.312 312.701 257.519 314.443 256.719C321.747 253.346 326.693 253.703 333.864 252.242C343.905 250.198 344.87 240.523 346.962 232.682C347.156 231.951 346.931 230.56 348.097 230.933C349.482 241.122 346.97 251.691 347.817 262.112C349.528 283.071 371.283 308.934 386.262 322.744C398.31 333.849 421.464 347.48 421.285 365.867C421.27 367.095 420.694 368.237 420.655 369.372C420.399 377.244 420.966 388.49 411.33 390.961C407.589 391.924 405.481 389.018 400.814 392.663C396.638 395.927 392.352 406.83 399.663 408.703C398.644 406.216 401.172 394.885 404.602 395.888C407.208 396.649 403.552 400.885 403.295 402.136C402.09 407.972 403.179 410.754 409.572 409.868C408.802 406.449 408.646 403.317 409.875 399.976C410.715 397.675 411.649 396.479 414.239 397.054C412.901 401.483 411.104 406.014 414.231 410.172C416.028 411.26 431.56 410.047 433.628 408.718C433.823 408.594 436.732 405.672 436.895 405.423C438.536 402.89 439.049 397.621 440.045 394.582C441.204 391.062 443.102 388.148 443.809 384.363C445.855 373.499 444.937 360.078 445.1 348.933C445.163 344.473 447.286 334.766 444.206 331.223C442.386 329.124 437.097 326.816 434.608 324.5C410.256 301.792 429.226 268.337 427.048 241.72C426.356 233.273 422.887 225.82 417.731 219.276C421.184 219.432 424.023 221.344 427.507 222.027C454.869 227.397 504.95 214.629 502.251 179.324C500.789 160.152 484.852 156.064 473.084 146.132C451.968 128.305 481.368 103.351 500.166 102.1C510.682 101.401 508.403 107.96 514.151 113.796C516.943 116.625 522.325 120.565 526.26 120.93C526.968 120.992 527.419 122.065 527.279 120.487C524.892 117.93 521.283 115.35 521.462 111.449C524.332 111.892 525.872 114.69 528.633 116.213C533.361 118.832 536.745 118.187 541.855 119.018C538.339 113.951 530.235 113.804 529.037 107.369C534.248 109.498 539.381 113.306 545.347 111.736L529.574 100.701L525.537 99.7764C527.513 97.1264 531.479 98.7273 534.575 98.6185C535.283 98.5951 536.737 99.0614 536.605 98.0434C531.456 97.3906 525.887 93.1086 521.01 92.3625C507.337 90.2565 487.185 99.5044 475.402 106.483C463.432 113.571 453.633 128.056 458.812 142.324C464.716 158.582 504.374 166.486 488.718 191.494C474.469 214.256 435.837 212.313 413.391 206.407C405.893 204.433 396.576 199.941 389.303 199.024C363.886 195.822 338.041 209.267 310.788 207.029C304.465 206.508 298.429 204.876 292.433 202.957C291.639 210.712 283.535 209.376 278.231 206.99C276.652 209.29 276.123 210.736 272.988 210.495C266.525 209.99 260.039 201.915 255.162 197.975C243.791 188.813 234.668 182.883 226.906 169.703C225.786 167.799 225.599 165.126 223.67 163.906C225.094 169.882 225.778 176.565 223.188 182.37C222.877 183.077 219.75 188.105 219.462 188.292C219.066 188.556 217.619 187.414 216.414 188.991C214.671 191.284 214.166 195.061 211.444 198.014C207.594 202.179 200.734 203.081 198.121 208C195.507 212.919 196.892 217.854 195.103 222.766C191.44 220.963 192.35 216.144 192.925 212.717C194.24 204.837 199.567 199.77 202.6 192.667C203.262 191.121 205.144 184.406 205.587 183.994C205.999 183.614 206.248 183.66 206.762 183.715C206.824 189.139 205.502 194.338 203.86 199.452C211.218 195.473 213.894 186.264 213.015 178.337C212.408 172.889 206.583 160.245 208.799 155.73C208.916 155.489 209.492 155.015 209.678 155.155C212.571 165.095 218.42 174.125 217.269 184.88L220.442 177.855C223.849 169.75 216.795 160.859 215.659 153.554C214.788 147.974 215.566 143.444 213.474 137.669C213.233 137.001 208.729 129.098 209.982 129.51C215.169 132.369 218.226 137.39 218.949 143.273C219.214 145.417 218.623 148.285 219.097 150.119C219.291 150.865 219.797 151.3 220.474 150.492C223.46 146.917 224.044 135.486 222.06 131.421C221.368 129.999 220.015 129.478 219.408 127.668C217.845 123.02 219.299 117.542 215.799 113.213C214.804 111.977 213.077 111.402 212.027 109.996C210.977 108.589 210.557 106.732 209.359 105.084C205.595 99.8774 199.054 95.8674 192.801 94.5385C191.385 92.6112 201.986 85.1041 207.594 90.5363C210.549 93.3961 210.588 96.5668 209.95 100.398L212.61 104.455C215.34 93.3339 211.179 79.4466 197.304 84.7699C191.805 86.8837 193.882 88.7255 187.162 85.9045C185.606 85.2517 183.296 84.3036 182.309 82.897L191.898 81.1329C192.552 81.0241 192.287 80.3636 191.937 79.9595C190.475 78.2575 177.51 75.1723 174.733 75.8873C175.363 73.8201 179.952 74.6672 180.559 73.2683C176.359 70.8359 169.927 71.4265 165.415 72.9808L168.324 69.4837C165.633 69.3671 163.207 69.3904 160.624 70.2297C158.042 71.069 155.81 73.6958 153.181 73.2761L154.923 71.24L142.689 72.9886L145.606 75.3122C138.894 74.7838 132.516 75.8173 129.288 82.3064L135.697 80.8532C134.048 81.9023 132.843 84.9098 131.023 85.4771C126.107 87.0003 122.926 82.0344 116.043 84.5135C108.32 87.2878 109.797 95.7508 111.228 102.139L114.448 100.414C111.275 91.7719 116.774 84.7544 125.742 89.6581L128.705 92.518C128.184 93.6448 121.682 96.9554 120.258 98.0589C117.699 100.056 110.326 107.944 108.988 110.687C108.584 111.519 108.125 112.218 108.312 113.213L112.683 110.314C113.655 111.006 113.78 111.698 113.453 112.817C113.095 114.037 106.593 119.586 105.154 121.427C103.809 123.153 101.615 126.556 101.32 128.662L101.335 128.608ZM331.282 77.8223C333.802 82.1898 334.759 81.3428 339.487 82.1743C352.647 84.4979 391.147 89.7125 401.647 82.7571C402.479 82.2054 404.182 80.7211 404.61 79.8973C405.24 78.7005 406.36 73.9833 404.61 73.5636C403.879 73.3849 392.99 76.7965 390.073 77.0219C371.811 78.4363 351.815 74.5118 333.53 73.4937C331.795 73.3072 330.123 75.693 330.31 77.2473C330.356 77.6436 331.158 77.6281 331.274 77.8223H331.282ZM401.491 86.4019C401.756 91.1502 404.307 91.3911 408.234 92.1061C425.361 95.2146 459.792 98.8205 473.994 87.5132C478.039 84.2959 481.383 78.7394 481.873 73.5403C478.544 74.9159 475.052 76.136 471.506 76.8665C455.46 80.1537 435.036 80.9153 418.625 80.5579C415.771 80.4957 412.38 79.3688 409.323 79.9439C406.492 81.9256 405.784 85.8579 401.499 86.4019H401.491ZM330.94 85.1973L333.856 91.3056C335.708 93.3339 352.678 96.528 356.466 97.2585C366.103 99.1081 383.486 102.543 392.749 100.67C398.372 99.5355 400.729 94.352 398.271 89.2618C396.801 87.8085 391.271 89.7514 388.953 89.8757C378.64 90.4352 366.663 89.2695 356.373 88.0339C349.28 87.179 341.121 84.801 334.129 84.5834C332.978 84.5446 332.036 84.972 330.955 85.1973H330.94ZM289.57 97.4294C295.964 98.4164 322.275 107.734 326.553 102.652C329.19 99.5277 324.951 97.0642 322.237 96.5124C312.865 94.6162 305.437 94.8183 295.513 91.7641C294.766 91.531 293.661 90.6217 293.35 90.6217C293.024 90.6217 290.387 92.5724 290.115 93.0153C289.322 94.282 289.601 95.8441 289.026 97.1652C288.17 99.1158 286.802 100.919 286.234 103.118C285.892 104.455 286.14 107.128 285.767 107.874C284.772 109.864 281.412 111.542 279.677 112.863C280.494 113.928 281.59 114.449 282.757 115.016C287.276 117.215 304.014 125.002 307.926 125.398C312.118 125.826 314.871 124.994 311.97 120.775C308.027 115.047 293.039 113.532 287.027 109.125L286.669 107.338C295.077 107.944 311.138 118.125 318.908 113.205C321.156 111.783 319.382 107.967 316.979 107.027C310.072 104.33 299.666 104.548 292.891 100.235L289.586 97.4217L289.57 97.4294ZM328.109 95.7586C327.743 96.3959 330.333 100.507 330.924 101.237C332.169 102.761 344.862 105.869 347.716 106.592C356.194 108.721 367.246 111.682 375.693 113.003C380.359 113.734 388.899 114.589 389.778 108.169C390.26 104.61 387.927 104.719 384.839 104.439C369.696 103.064 354.491 100.965 339.674 97.1574C335.746 96.1472 332.083 92.7589 328.117 95.7664L328.109 95.7586ZM459.73 98.0201C456.503 98.3309 452.746 99.0614 449.557 99.2013C437.929 99.722 423.339 98.463 411.82 96.6756C408.849 96.2171 405.769 95.4866 402.891 94.6007C401.919 94.7017 402.059 97.4139 401.584 98.4319C400.177 101.447 397.408 103.382 394.468 104.711C395.642 107.322 404.345 108.519 407.091 108.985C411.454 109.739 416.588 110.446 420.982 110.827C434.818 112.024 453.298 113.252 459.73 98.0123V98.0201ZM322.198 107.929C322.042 108.053 323.917 111.022 324.282 111.379C326.46 113.516 347.872 120.658 352.204 121.925C360.075 124.233 369.035 126.665 377.232 125.375C380.429 124.87 381.821 121.225 380.126 118.466C378.765 116.244 372.325 115.949 369.393 115.218C361.172 113.166 352.865 111.216 344.675 109.048C342.046 108.348 330.932 104.307 329.548 104.579C328.303 104.82 324.935 108.993 322.198 107.936V107.929ZM439.913 114.923C424.381 115.125 408.592 114.052 393.674 109.623C391.248 113.796 387.763 115.544 383.369 116.998C383.61 117.93 383.735 118.715 384.707 119.181C388.09 120.798 396.599 122.64 400.628 123.611C413.476 126.704 435.487 132.447 439.921 114.923H439.913ZM323.753 115.016L315.213 118.117C317.656 121.225 320.627 122.725 324.134 124.342C332.363 128.126 356.902 137.957 364.967 136.993C369.96 136.395 372.255 132.136 367.79 129.059C355.455 126.028 342.692 122.663 330.784 118.272C329.555 117.821 324.142 114.977 323.753 115.016ZM279.078 123.658C280.074 123.596 281.046 123.603 282.018 123.922C287.478 125.733 294.696 131.608 300.514 133.403C302.652 134.064 305.763 135.136 306.969 132.564C307.63 130.162 304.9 128.344 303.158 127.256C297.099 123.471 288.287 121.521 282.197 117.293L281.404 117.495C279.475 122.523 271.091 122.049 274.427 128.6C280.533 131.305 292.285 143.086 298.624 142.34C299.246 142.27 299.992 142.332 300.397 141.757C301.634 135.152 292.541 133.232 288.023 130.745C286.568 129.945 280.393 126.479 279.693 125.671C279.063 124.94 278.931 124.676 279.094 123.658H279.078ZM422.436 130.652C409.556 130.077 396.342 126.828 384.295 122.5C382.249 127.24 378.617 128.538 374.658 130.939C380.452 135.424 388.541 137.522 395.619 139.107C402.323 140.607 407.526 142.185 414.285 139.698C417.816 138.4 422.39 134.701 422.436 130.652ZM311.309 131.631C312.18 132.688 330.248 141.827 332.876 142.993C339.052 145.728 349.98 150.166 356.598 148.448C358.193 148.036 360.876 145.93 361.14 144.228C361.84 139.737 356.419 139.954 353.371 138.82C344.807 135.633 336.322 132.579 327.728 129.494C325.597 128.732 318.884 125.08 317.562 125.678C315.867 126.44 314.101 130.497 310.547 129.494C310.936 130.1 310.975 131.219 311.317 131.631H311.309ZM266.836 132.408C266.688 132.556 267.738 134.087 268.05 134.398C271.005 137.304 284.795 147.601 288.435 149.56C295.038 153.111 298.39 149.769 292.767 144.64L273.214 130.939L266.836 132.408ZM310.92 134.817C310.329 134.942 309.715 136.069 308.96 136.348C307.926 136.737 304.177 137.141 304.154 137.926C305.515 141.26 309.388 142.97 312.491 144.734C318.62 148.215 327.945 153.64 334.238 156.204C338.204 157.828 345.064 160.68 348.354 156.499C349.217 155.404 350.345 153.049 348.673 152.256C338.71 149.272 328.451 144.594 319.289 139.682C317.819 138.89 311.892 134.608 310.936 134.802L310.92 134.817ZM404.952 144.64C394.483 142.884 384.186 139.9 374.378 135.882C373.134 139.939 368.226 140.304 364.71 141.477L364.843 147.454C376.564 152.738 398.458 160.781 404.952 144.64ZM263.927 142.301C271.705 145.223 276.535 153.741 283.792 157.704C285.386 158.574 287.47 160.331 288.94 158.279C292.036 153.958 280.533 147.539 277.639 145.208C274.225 142.464 270.888 139.503 267.715 136.48L263.927 142.301ZM260.42 150.461C261.159 150.422 261.866 150.593 262.473 151.028C266.261 153.748 274.863 164.776 278.829 165.04C282.042 165.258 280.984 160.859 279.654 158.916C276.379 154.16 266.953 149.07 263.29 143.809L261.011 142.892C261.633 145.666 261.96 147.873 260.42 150.461ZM298.888 146.397C298.149 147.399 308.175 155.621 309.419 156.546C313.922 159.903 320.899 164.317 325.884 166.882C329.011 168.498 335.855 172.508 338.08 167.807C340.452 162.818 333.016 159.313 329.579 157.354C325.573 155.069 321.179 153.375 317.142 151.145C315.431 150.197 304.799 143.071 304.185 143.506C303.718 146.28 301.035 145.721 298.888 146.389V146.397ZM226.05 147.562C225.685 149.762 224.37 151.339 224.254 153.663C223.958 159.188 229.457 169.174 234.963 170.814C240.338 169.501 230.585 158.279 229.441 156.111L226.05 147.562ZM388.051 158.054C382.218 157.207 374.829 155.831 369.276 153.803C367.518 153.158 363.015 150.041 362.595 149.979C361.949 149.886 359.025 152.171 357.765 152.528C356.365 152.932 354.996 152.614 353.627 153.049C350.858 159.476 356.186 160.292 360.938 162.134C369.945 165.623 383.338 169.524 388.043 158.046L388.051 158.054ZM252.852 152.217C251.701 153.406 257.705 158.341 258.662 159.515C261.431 162.919 265.296 169.819 269.317 171.584C273.649 173.488 273.354 168.009 272.008 165.398C270.157 161.807 262.325 156.966 260.147 152.746C259.113 151.518 258.413 153.22 257.34 153.243C256.469 153.267 253.319 151.736 252.852 152.21V152.217ZM292.487 153.966C291.88 154.712 295.575 157.976 296.283 158.613C299.969 161.947 305.429 166.385 309.427 169.369C312.273 171.498 324.492 179.914 327.207 180.194C331.842 180.668 333.841 176.581 330.66 173.192C321.84 168.677 313.292 163.634 305.359 157.696C304.068 156.733 300.902 153.484 300.039 153.049C299.051 152.552 294.704 156.111 292.479 153.966H292.487ZM247.027 159.794C245.292 161.248 258.584 174.879 260.124 176.122C261.275 177.055 264.806 179.868 266.284 178.78C268.765 173.666 262.162 169.547 259.362 165.809C257.223 162.957 254.664 159.25 254.011 155.715C252.728 156.53 253.039 158.178 251.328 159.142C249.92 159.934 248.567 159.857 247.027 159.794ZM284.904 162.126L285.736 164.496C292.837 169.571 299.269 176.837 306.269 181.842C308.828 183.676 319.367 190.305 321.918 187.779C323.084 186.031 323.209 183.645 321.871 181.974C311.838 174.855 301.431 168.009 292.767 159.219C290.651 162.009 288.31 162.491 284.904 162.126ZM342.077 168.475C349.964 171.242 362.089 177.793 368.77 169.913C369.198 167.457 360.176 165.685 358.177 164.9C356.311 164.17 351.185 160.999 349.878 160.999C348.572 160.999 344.216 163.571 342.093 163.369L342.077 168.467V168.475ZM258.677 183.691C258.584 175.796 249.562 171.654 246.731 164.457C245.65 168.638 242.243 167.55 238.868 166.789C238.689 168.351 239.14 170.231 238.852 171.731C238.432 173.938 235.414 173.876 236.791 177.902C237.398 179.689 248.745 188.043 250.814 190.103C251.483 184.228 245.549 180.07 242.85 175.337C242.259 174.311 239.529 168.506 240.034 167.954C241.123 167.729 241.442 168.498 242.025 169.167C246.614 174.451 250.643 183.497 258.677 183.691ZM276.162 167.372C275.835 167.706 276.838 169.718 277.103 170.208C280.439 176.347 300.669 193.584 307.335 195.387C309.155 195.877 310.22 195.791 311.76 194.525C314.218 189.263 308.556 188.082 305.351 185.673C297.55 179.821 290.27 173.146 284.033 165.631C281.793 169.299 279.856 168.934 276.169 167.372H276.162ZM269.753 175.531C269.621 176.208 269.815 176.658 270.064 177.257C271.853 181.616 290.511 197.726 295.256 199.856C296.656 200.485 301.089 202.109 302.131 200.633C303.664 196.25 300.451 196.615 298.017 194.766C290.185 188.828 282.189 181.189 276.457 173.208C274.699 175.5 272.522 175.796 269.761 175.531H269.753ZM262.177 181.36C262.52 182.813 262.59 184.414 263.313 185.751C264.713 188.331 274.085 197.47 276.729 199.724C278.728 201.426 283.815 205.599 286.319 205.272C288.824 204.946 288.925 201.573 287.844 199.685C286.669 197.641 280.097 193.211 277.888 190.989C275.042 188.129 272.265 184.228 269.753 181.026C266.961 181.562 265.125 182.588 262.177 181.36ZM267.622 195.729C266.463 194.408 260.956 187.181 260.435 186.854C260.155 186.683 255.714 188.595 254.019 187.196C254.586 188.883 254.213 192.061 255.139 193.359C255.559 193.95 262.792 200.532 263.92 201.48C265.74 203.011 272.568 208.552 274.466 206.174C276.838 203.213 269.232 197.555 267.622 195.729ZM139.796 260.045C140.037 259.05 139.407 258.879 138.933 258.288C137.47 256.454 134.383 254.605 132.508 252.476C130.33 250.004 128.487 245.318 125.267 244.557C122.724 243.958 116.051 244.059 113.29 244.308C110.396 244.572 106.927 246.095 103.956 246.095C97.3686 246.111 90.8509 243.865 83.8277 245.147C77.8545 246.235 71.3679 253.719 65.9702 257.014C62.5713 259.089 57.7103 260.519 54.7548 262.703C53.837 263.379 48.2215 269.153 47.9882 269.914C47.1405 272.65 47.3504 277.732 51.2159 276.947C50.8271 275.191 53.5492 267.194 55.5792 267.622C57.477 269.161 54.7859 270.909 54.677 273.163C54.3737 279.636 58.7058 280.211 63.7847 278.129C62.3847 275.689 64.3369 266.138 67.8135 267.039C69.5946 267.505 67.168 271.982 67.0668 273.326C66.4291 281.859 75.1012 279.489 79.7211 276.606C89.3499 270.598 93.0676 262.905 106.437 260.775C107.565 260.597 109.984 259.905 109.494 261.786C107.993 261.366 100.114 265.337 101.919 267.031L138.046 266.448C138.373 264.778 137.346 264.008 135.884 263.666C133.667 263.138 123.587 263.021 122.895 262.368C122.732 260.861 122.895 261.444 123.743 261.187C124.45 260.977 128.612 260.037 129.016 260.037H139.796V260.045ZM152.559 272.339C150.14 272.114 147.62 270.863 145.264 270.598C132.143 269.137 117.668 270.637 104.524 271.694C100.363 272.028 93.4798 271.22 89.7154 273.202C89.3887 273.373 84.2944 277.771 84.131 278.105C82.9722 280.46 84.3644 285.162 84.4499 287.703C85.2666 312.02 87.911 336.328 89.6687 360.59C90.6021 373.491 91.0687 386.453 92.0098 399.346C96.902 398.561 101.086 395.826 105.994 394.388C118.485 390.743 135.168 390.914 148.273 391.155C150.957 391.202 161.534 393.246 162.468 390.207L152.567 272.339H152.559ZM80.3511 282.193C76.6723 282.636 71.8734 284.501 68.2646 282.924C67.3857 282.543 66.4913 280.957 65.6046 281.097C65.2235 281.16 63.7924 282.38 62.5558 282.745C56.7848 284.455 56.4659 282.659 51.9626 281.16C50.7882 280.771 49.3882 281.191 47.8716 280.584C45.8571 279.784 44.9549 276.66 43.3605 276.357C39.565 275.634 29.1196 276.194 24.6863 276.341C20.253 276.489 15.5476 277.282 11.301 277.523C8.69543 277.678 6.04325 277.429 3.43773 277.523L9.85431 404.584L16.302 399.649C15.3298 374.159 14.622 348.739 12.7554 323.28C12.1176 314.537 9.95542 305.383 11.021 296.757C12.8332 298.241 12.8565 301.847 13.2531 304.139C16.7064 324.096 16.3642 344.535 18.6197 364.632L19.7553 398.755C42.9327 399.191 65.8535 391.513 88.5176 399.331L80.3589 282.178L80.3511 282.193ZM384.932 340.097C382.164 336.958 378.64 335.038 376.68 330.578C374.72 326.117 375.537 319.822 373.709 316.068C372.045 312.649 364.508 305.367 361.599 301.373C357.236 295.389 353.822 288.667 349.241 282.83C345.445 283.538 345.826 287.353 346.355 290.392C347.436 296.656 354.615 304.054 358.893 308.74C361.833 311.957 369.68 316.441 366.196 321.819L339.254 291.628C335.7 290.609 321.91 299.065 319.81 302.305L319.421 302.88C327.588 316.993 352.313 326.871 355.844 343.253C357.625 351.506 354.055 374.012 348.144 380.135C343.742 384.697 340.047 383.096 334.728 383.617C328.762 384.208 324.01 391 324.002 396.789C324.002 398.188 324.912 402.983 326.864 401.957C324.36 398.437 329.866 388.186 333.584 388.272C337.302 388.357 331.578 393.409 331.01 394.466C329.828 396.657 328.778 402.455 331.515 403.721C333.055 404.436 335.155 403.543 336.758 404.592C336.369 399.564 336.851 393.852 341.712 391.171L343.174 392.08C341.447 394.481 338.546 402.703 342 404.312C344.279 405.369 351.232 404.973 353.884 404.53C364.143 402.812 363.007 398.126 367.759 390.432C369.914 386.943 374.915 381.612 376.097 378.371C378.049 373.001 379.014 365.494 380.764 359.72C382.514 353.946 384.964 348.444 386.581 342.747C386.06 341.885 385.601 340.859 384.932 340.097ZM158.431 285.115L157.288 285.387L160.764 315.128L165.431 387.689C169.693 387.969 174.103 386.042 178.249 387.689C178.855 381.052 180.854 373.607 180.605 366.971C180.45 362.852 179.182 357.863 178.84 353.588C177.611 338.131 176.211 322.666 171.676 307.714C170.067 302.399 167.422 299.99 164.607 295.552C162.452 292.156 160.352 288.643 158.431 285.115ZM157.28 395.266H119.107C115.008 395.266 105.769 398.375 101.755 400.061C101.219 400.286 94.3898 402.991 97.5553 403.426C97.9131 403.473 103.046 401.856 104.547 401.685C116.805 400.302 130.494 399.781 143.008 398.771C145.248 398.592 156.059 399.028 157.023 397.636L157.28 395.266ZM12.7554 407.498L84.4188 403.131C69.6101 395.694 52.0015 400.667 36.345 402.253C28.4896 403.045 18.262 400.83 12.7476 407.498H12.7554Z" fill="#70E0DD" fill-opacity="0.09"/>
<path d="M133.387 187.476C133.262 188.339 131.878 189.916 132.212 191.268L130.439 191.012C129.303 187.927 130.719 184.756 130.4 181.142C129.957 176.2 127.483 170.674 126.97 165.631C125.407 165.483 126.037 165.631 125.819 166.501C125.344 168.483 124.792 181.92 123.182 181.935C118.936 173.907 123.789 164.457 125.072 156.445C125.453 154.075 124.909 151.635 125.803 149.311C124.294 148.953 124.784 149.762 124.302 150.407C122.544 152.777 121.152 155.792 118.819 157.463C119.441 150.842 127.584 144.205 123.19 137.646C121.238 139.41 121.238 143.638 118.236 144.05C117.458 143.21 122.568 133.411 121.144 131.235L115.902 134.724L121.72 124.52C122.513 121.855 116.929 126.898 115.902 125.989C116.633 123.961 118.352 122.508 119.496 120.549C119.822 119.99 123.027 113.99 120.864 114.923C120.188 115.218 119.325 117.379 118.236 116.376L122.303 109.949C122.964 107.719 117.917 111.348 117.069 109.965C120.001 106.304 124.862 106.304 127.553 102.38C127.67 100.849 127.312 101.774 126.558 101.968C124.582 102.458 122.552 103.965 120.569 103.561C125.508 99.6055 131.87 96.0073 138.045 94.5152L132.049 93.2407L131.061 91.6165C135.245 91.4611 139.453 91.4689 143.288 93.3651L142.416 86.3709C144.369 87.8396 145.193 90.2177 146.624 92.0439C146.997 92.518 146.609 93.1164 147.954 92.7822C147.34 89.4017 147.145 86.6973 148.125 83.3323C148.359 82.5396 150.871 76.9442 152.037 78.2187L150.863 84.8865L153.787 94.5308C154.176 91.057 155.047 88.0495 156.821 85.0342C157.396 84.0628 161.129 78.6539 162.529 79.9673C161.907 82.0034 160.569 83.2468 160.251 85.5549C160.056 86.9382 160.033 93.2563 160.787 93.9557C161.705 94.8028 161.783 93.6759 162.086 93.2096C162.973 91.8263 163.478 90.2332 164.622 88.7644C165.329 87.8552 169.148 83.6898 168.339 87.2335C168.207 87.8163 164.544 93.4894 166.893 92.79C169.242 92.0906 172.749 87.3423 173.893 85.2207C176.249 86.2154 172.337 91.1502 172.438 92.79C176.864 93.7692 179.85 89.8291 184.05 90.5363C183.786 92.6579 185.24 92.6268 187.006 92.7978C187.418 94.8416 184.346 93.9324 183.521 95.4167C186.765 99.8308 191.929 97.4217 195.748 100.087C196.152 101.75 191.478 102.1 190.506 102.123C191.338 106.887 205.299 107.517 205.649 111.154C205.781 112.56 204.086 111.449 203.728 111.34C200.469 110.4 198.12 109.887 194.589 110.283C195.81 116.236 204.521 118.793 204.786 125.43C202.553 123.805 200.554 119.663 197.49 119.904C198.525 126.828 199.753 133.333 205.073 138.252C200.632 138.789 199.738 133.628 196.339 131.849C196.238 137.685 198.602 143.576 202.157 148.161C198.929 150.461 193.259 144.081 191.361 144.065C190.304 144.058 190.21 144.757 189.868 145.511C188.266 149.055 192.979 156.927 193.415 161.287C193.998 167.061 193.671 175.399 187.014 177.303C188.227 172.283 191.011 168.071 189.782 162.584L187.589 157.774C185.971 161.543 186.072 165.732 184.844 169.602C183.708 173.161 181.219 176.402 179.998 179.907C179.625 180.964 177.346 193.499 175.946 192.457C173.597 187.165 175.269 179.775 178.271 174.98C177.463 174.226 172.353 180.054 171.746 180.979C167.297 187.732 169.319 195.03 164.567 201.2C163.198 201.892 163.642 197.431 163.681 196.809C163.914 193.421 166.379 189.139 163.128 186.629C161.868 189.644 159.862 192.465 159.076 195.698C158.018 200.066 158.983 204.713 157 208.762C151.485 203.703 158.182 194.626 152.636 189.543C152.076 192.799 151.594 196.724 150.311 199.755C148.009 205.21 143.785 209.803 142.315 216.238C140.526 224.048 142.502 230.242 142.72 237.92C137.322 232.037 136.521 223.434 138.481 215.904C141.32 205.008 154.098 195.364 143.311 184.305C142.642 189.147 142.214 195.628 138.885 199.413C138.302 200.073 137.991 200.851 136.894 200.625C139.119 193.491 139.29 186.489 136.894 179.347L133.387 171.49C132.889 176.48 134.063 182.697 133.387 187.515V187.476ZM164.272 141.726C164.559 143.786 163.828 145.262 162.778 146.925C159.395 152.28 154.425 152.769 154.347 160.113C154.34 160.968 154.285 161.768 154.9 162.468C157.381 163.198 159.372 165.483 161.526 166.33C165.158 167.76 172.267 167.519 175.751 165.732C179.563 163.781 181.639 157.712 181.219 153.655C180.955 151.106 177.867 150.236 178.614 147.679C179.205 145.674 185.147 142.309 187.021 140.296C193.376 133.465 193.547 118.451 190.358 110.097C188.087 104.136 179.679 97.3595 173.294 96.8544C165.773 96.2638 161.884 101.338 154.122 100.297C151.361 99.9241 148.623 97.9968 145.761 97.5849C137.866 96.4425 130.462 101.043 127.849 108.511C125.236 115.98 122.84 130.077 126.853 137.483C128.183 139.931 134.437 144.267 134.569 145.542C132.165 150.834 129.645 154.246 130.524 160.626C131.808 169.944 144.874 169.586 150.583 164.465L151.345 154.969C149.206 150.345 137.68 146.684 143.295 141.392C144.509 140.77 146.92 143.016 148.273 143.444C153.966 145.247 158.835 142.954 164.264 141.726H164.272ZM160.196 178.446C161.876 178.22 162.483 180.8 163.976 180.793C166.387 180.793 173.263 171.187 168.51 169.804C166.885 169.33 165.594 170.247 164.124 170.138C160.453 169.858 156.836 167.783 152.924 167.947C150.466 168.055 144.283 169.944 141.989 171.024C135.798 173.931 146.857 181.368 150.132 181.857C152.037 182.145 152.986 179.953 153.204 178.446C155.677 178.555 154.052 181.243 156.976 181.414C159.224 181.547 159.877 180.552 160.196 178.446Z" fill="#70E0DD" fill-opacity="0.09"/>
<path d="M253.427 283.942C253.178 282.341 253.793 281.82 255.169 281.315C258.638 280.048 262.356 281.183 266.276 280.18C270.305 279.155 273.486 276.512 278.098 276.59C279.801 276.621 281.753 277.437 283.449 277.523C290.931 277.903 306.813 273.147 314.194 270.404C317.103 269.324 323.512 264.436 324.943 264.21C325.946 264.047 326.257 264.21 326.856 265.011C327.214 266.301 324.888 268.283 323.947 269.091C319.911 272.557 295.442 280.631 289.873 281.051C285.129 281.416 280.307 279.963 275.866 280.445C272.218 280.841 269.123 283.452 265.91 283.895C264.604 284.074 253.863 284.393 253.427 283.942Z" fill="#70E0DD" fill-opacity="0.09"/>
<path d="M206.232 227.693C204.218 242.614 190.358 246.375 181.453 254.784C176.413 259.54 176.833 264.77 172.438 269.37C171.847 262.019 175.651 255.001 181.219 250.478C196.339 238.215 198.144 240.756 204.988 220.621C205.245 219.851 205.159 218.841 206.232 218.662C205.96 221.514 206.606 224.934 206.232 227.693Z" fill="#70E0DD" fill-opacity="0.09"/>
<path d="M222.543 252.468C221.532 252.25 221.376 251.349 221.36 250.455C221.236 243.577 231.534 233.762 234.046 226.371C236.558 218.981 235.508 211.831 237.406 204.682C241.357 214.295 239.887 225.703 234.676 234.586C231.02 240.803 225 245.489 222.543 252.475V252.468Z" fill="#70E0DD" fill-opacity="0.09"/>
<path d="M193.983 146.397C199.653 154.215 204.171 162.709 201.885 172.641C200.85 177.117 198.237 182.891 194.869 186.015C191.315 186.015 197.49 174.894 197.794 173.799C198.96 169.61 198.945 165.149 197.77 160.984C196.401 156.126 192.31 152.326 193.057 147.011C193.189 146.086 192.777 145.34 193.983 146.405V146.397Z" fill="#70E0DD" fill-opacity="0.09"/>
<path d="M226.626 190.103C228.251 189.831 227.606 190.445 227.94 191.385C232.389 203.811 228.687 216.106 221.041 226.193C220.225 227.265 213.824 234.92 212.642 233.809C215.784 227.452 220.824 221.235 223.631 214.784C224.518 212.741 226.626 206.904 226.626 204.961V190.103Z" fill="#70E0DD" fill-opacity="0.09"/>
<path d="M407.278 294.433C405.964 294.674 406.345 294.379 405.979 293.695C404.081 290.213 404.043 282.994 404.439 279.061C405.046 273.116 407.185 270.622 406.049 263.907C405.038 257.962 400.768 254.325 400.877 248.396C401.904 247.199 406.073 254.621 406.438 255.359C412.419 267.373 408.266 270.637 407.294 281.913C406.944 285.947 407.527 290.353 407.278 294.433Z" fill="#70E0DD" fill-opacity="0.09"/>
<path d="M212.641 357.373C210.985 357.653 211.661 357.039 211.397 356.029C208.714 345.934 213.388 339.919 214.321 330.787C214.936 324.733 214.718 317.77 214.975 311.623C215.014 310.729 214.43 309.315 215.838 309.595C222.278 325.604 213.411 341.45 212.641 357.373Z" fill="#70E0DD" fill-opacity="0.09"/>
<path d="M184.082 214.582C183.289 220.745 181.756 226.9 178.949 232.464C176.685 236.948 172.439 241.184 170.572 245.652C168.908 249.623 169.413 253.532 167.477 257.115C166.652 257.115 165.509 252.918 165.47 252.095C165.182 246.002 173.784 234.368 176.81 228.579C178.988 224.421 180.52 219.595 182.62 215.717C183.063 214.901 182.573 214.287 184.082 214.582Z" fill="#70E0DD" fill-opacity="0.09"/>
<path d="M438.007 334.813C439.119 335.916 441.522 341.893 441.686 343.657C441.919 346.112 440.76 363.707 438.458 363.777C437.315 362.961 437.548 361.748 437.54 360.567C437.532 355.011 439.92 346.439 438.194 341.318C437.431 339.048 435.868 337.098 435.829 334.067C436.195 333.795 437.618 334.432 437.999 334.813H438.007Z" fill="#70E0DD" fill-opacity="0.09"/>
<path d="M188.165 189.52C188.92 190.359 182.55 208.979 177.098 207.58C175.892 206.298 180.574 200.788 181.414 199.374C182.939 196.809 184.58 193.009 186.283 190.841C186.835 190.141 186.952 189.255 188.157 189.52H188.165Z" fill="#70E0DD" fill-opacity="0.09"/>
<path d="M215.55 125.406L212.719 123.867L207.399 112.583C209.624 112.179 210.806 113.703 211.965 115.296L215.558 125.398L215.55 125.406Z" fill="#70E0DD" fill-opacity="0.09"/>
<path d="M35.6059 328.083C35.2792 327.92 35.3726 326.443 32.8681 326.474C23.7372 326.606 25.2694 343.859 35.1081 341.558C36.6637 341.038 35.9403 338.263 36.0648 336.973H31.3982V333.476L39.5647 332.893C38.6547 337.3 42.5669 342.001 37.2314 344.263C26.8793 348.646 20.6572 337.323 24.2349 328.347C27.1749 320.98 39.5725 322.402 38.717 326.536C38.3592 327.904 36.9981 328.782 35.6059 328.083Z" fill="#70E0DD" fill-opacity="0.09"/>
<path d="M40.6537 357.466L40.1171 360.272C38.9815 361.064 34.5638 356.782 31.4216 359.44C26.3195 363.761 37.076 364.103 38.8727 364.771C42.7926 366.225 43.2204 369.776 41.7815 373.32C39.526 378.876 26.8406 379.809 26.7784 372.582C29.1195 371.159 30.2317 373.693 32.4016 374.151C35.9482 374.89 39.106 373.436 38.4138 369.419C34.836 366.955 27.6495 369.123 26.7628 363.466C25.5028 355.461 35.326 353.565 40.646 357.466H40.6537Z" fill="#70E0DD" fill-opacity="0.09"/>
<path d="M26.7476 304.932L27.3232 312.501H23.831L22.0732 291.519C28.342 290.617 38.2663 289.537 37.2475 298.808C36.6953 303.813 30.8931 304.792 26.7476 304.924V304.932ZM26.8021 301.357C36.9053 302.562 35.6608 292.739 26.1565 294.425L26.8021 301.357Z" fill="#70E0DD" fill-opacity="0.09"/>
<path d="M75.8088 374.742C75.0855 374.322 73.6155 370.188 73.2811 369.115L67.3312 369.007L65.6668 374.734L62.2912 375.441C62.2057 374.61 62.3146 373.802 62.439 372.978C62.9757 369.419 65.4645 358.873 66.7712 355.741C67.7434 353.41 70.0378 352.889 71.5467 354.816C72.5889 356.137 78.251 369.97 78.7877 372.069C79.4488 374.649 77.8466 375.931 75.8011 374.742H75.8088ZM69.8589 357.964C68.9489 356.961 68.8556 358.088 68.7156 358.85C68.2878 361.259 67.8601 363.707 67.5334 366.124C68.6923 366.077 71.8422 366.582 72.1689 365.206L69.8667 357.964H69.8589Z" fill="#70E0DD" fill-opacity="0.09"/>
<path d="M74.5259 310.17C70.0071 311.25 69.2293 306.743 67.1216 303.914C66.8494 303.549 67.2149 302.904 66.0871 303.176C65.5738 303.3 61.8716 313.714 59.655 310.186C58.5428 308.406 63.6605 302.282 63.8705 299.966L57.6328 289.778C62.4394 288.76 63.1861 293.244 65.5038 296.182C66.6705 296.415 66.2116 295.925 66.4994 295.443C68.3427 292.312 68.8171 286.677 73.3515 290.066L68.2182 299.889C69.206 301.451 75.7937 308.888 74.5337 310.17H74.5259Z" fill="#70E0DD" fill-opacity="0.09"/>
<path d="M44.2243 343.975L43.0576 322.993L54.7163 322.41V325.332L46.5576 325.915L47.1331 331.16L53.1686 331.238L54.063 332.093L54.1252 334.059L47.6776 334.906C46.9776 335.373 46.9387 341.022 48.3309 340.836L56.4508 340.478L56.3574 343.307C55.7274 343.26 54.7086 343.975 54.4052 343.975H44.2087H44.2243Z" fill="#70E0DD" fill-opacity="0.09"/>
<path d="M57.0415 310.753C52.8027 311.654 52.4838 308.74 51.1227 305.608L44.605 305.484L42.995 311.274L40.1406 311.336C40.3117 308.756 43.9828 291.006 44.885 290.431C45.3206 290.151 47.3427 290.244 47.9183 290.446C49.6449 291.052 56.2326 307.862 57.0415 310.745V310.753ZM50.0494 302.002L46.5572 294.433L44.7994 302.585L50.0416 302.002H50.0494Z" fill="#70E0DD" fill-opacity="0.09"/>
<path d="M59.9582 354.467V357.971C58.5271 358.181 54.7394 357.241 54.1871 358.927C54.9182 363.17 54.576 367.39 54.716 371.657C54.7938 374.182 56.7849 376.079 52.3594 376.335C51.7138 375.9 51.3716 375.333 51.2316 374.563C50.4461 370.204 51.465 363.271 50.6405 358.554H43.6406L43.6717 355.671L59.9582 354.474V354.467Z" fill="#70E0DD" fill-opacity="0.09"/>
<path d="M62.8674 339.895L71.6172 339.305V342.81C69.3695 342.032 60.7829 344.496 59.6318 342.841L58.7607 322.76L61.374 321.889C62.284 322.091 62.7896 327.733 62.8751 329.109C63.1007 332.676 62.7273 336.321 62.8751 339.888L62.8674 339.895Z" fill="#70E0DD" fill-opacity="0.09"/>
<path d="M76.2753 321.244L77.1776 342.258C76.3998 343.385 73.9265 343.027 73.942 341.356L72.7754 321.252H76.2753V321.244Z" fill="#70E0DD" fill-opacity="0.09"/>
<path d="M94.9268 352.135L98.7223 352.71L103.078 367.289L105.683 352.112L110.078 351.552L111.82 373.126L109.175 372.566C109.269 370.918 107.744 367.608 107.744 366.427V357.396C106.935 357.256 106.858 358.43 106.733 359.005C106.095 361.966 105.87 369.38 104.719 371.563C103.964 372.986 102.736 372.581 101.359 372.527L97.2678 358.562C96.389 362.533 98.5356 368.074 97.8434 371.672C97.5089 373.398 96.4978 373.195 94.9345 373.126V352.143L94.9268 352.135Z" fill="#70E0DD" fill-opacity="0.09"/>
<path d="M128.721 285.107C130.027 285.146 131.443 284.734 132.516 285.682C133.955 286.949 139.267 300.254 140.092 300.269L140.403 290.625L139.796 285.107H143.296L143.879 306.098C142.892 306.036 141.686 306.308 140.768 305.997C138.754 305.313 134.048 293.858 131.645 292.109L132.757 305.771C132.532 306.844 130.3 306.665 129.584 306.152C129.708 304.8 128.728 302.018 128.728 301.14V285.115L128.721 285.107Z" fill="#70E0DD" fill-opacity="0.09"/>
<path d="M101.475 326.35C106.764 327.764 114.005 326.902 112.877 334.782C111.749 342.662 96.7926 341.465 97.2126 336.694C97.4926 333.515 100.604 336.398 101.801 336.81C104.734 337.805 110.614 337.005 108.622 332.893C106.88 329.311 96.606 333.663 97.2048 324.423C97.4848 320.071 102.237 317.941 106.227 318.361C109.237 318.68 112.472 320.576 109.774 323.576C107.269 321.936 104.547 320.964 101.576 322.356C100.308 323.335 100.681 325.153 101.475 326.35Z" fill="#70E0DD" fill-opacity="0.09"/>
<path d="M120.5 301.497L114.13 301.691L112.326 307.178L108.911 307.248L114.231 286.351L117.949 286.848L126.372 305.803C125.431 307.054 123.626 306.914 122.281 306.401L120.492 301.497H120.5ZM118.82 297.922L116.199 290.353L114.161 298.505L118.82 297.922Z" fill="#70E0DD" fill-opacity="0.09"/>
<path d="M148.095 352.858C144.727 359.635 156.432 356.153 157.731 361.873C159.854 371.206 146.345 375.597 144.167 366.683L145.403 365.572C148.343 367.546 149.199 369.357 153.049 367.468C154.737 366.637 154.954 363.388 153.166 362.362C149.036 360 142.557 362.836 144.47 353.021C145.473 347.877 156.572 347.946 156.152 352.415C155.787 356.324 150.933 350.029 148.095 352.858Z" fill="#70E0DD" fill-opacity="0.09"/>
<path d="M126.395 317.747V320.654L118.82 321.236L119.465 326.42L124.871 325.946C126.146 326.311 125.827 328.425 125.82 329.396L119.403 329.979V335.815L128.728 335.225V338.73L116.455 339.056L114.985 318.936L115.623 317.747H126.403H126.395Z" fill="#70E0DD" fill-opacity="0.09"/>
<path d="M117.645 354.474L118.229 359.712H125.229L124.677 362.953L118.812 363.202V369.613L126.979 369.038C127.811 374.26 119.357 372.519 115.981 372.449L114.153 351.552L125.26 350.643C127.78 355.733 120.5 352.998 117.653 354.467L117.645 354.474Z" fill="#70E0DD" fill-opacity="0.09"/>
<path d="M107.744 286.856C107.806 287.687 107.744 288.511 107.604 289.335C107.129 292.024 103.808 303.728 102.789 306.09C102.447 306.89 102.082 307.637 101.335 308.142C99.3361 309.129 98.0372 307.497 97.1428 305.911C95.5561 303.114 90.7729 293.166 89.9562 290.369C89.7307 289.584 89.5751 288.845 89.684 288.022C90.5006 288.022 91.3873 287.89 92.1884 288.13C95.0272 289.001 97.7261 300.938 100.161 303.168L104.765 287.198L107.744 286.856Z" fill="#70E0DD" fill-opacity="0.09"/>
<path d="M142.712 349.804L138.52 370.382L137.68 371.291H134.631L127.562 350.387L130.999 350.441C132.407 354.933 133.745 360.45 135.697 364.678C135.961 365.253 136.031 366.046 136.879 366.116L139.827 349.827L142.712 349.796V349.804Z" fill="#70E0DD" fill-opacity="0.09"/>
<path d="M131.637 338.147L130.471 317.164H133.636L134.64 334.277L135.744 334.992L143.288 334.067C144.089 335.015 143.374 338.154 142.417 338.154H131.637V338.147Z" fill="#70E0DD" fill-opacity="0.09"/>
<path d="M147.955 316.581L149.145 337.175L146.57 338.108L145.629 336.686L145.038 316.581H147.955Z" fill="#70E0DD" fill-opacity="0.09"/>
<path d="M302.847 63.7952C304.986 63.632 314.133 62.6139 310.718 65.839C304.706 66.1499 298.134 68.388 292.153 67.7275C289.874 67.471 289.19 66.3364 291.601 65.3727C293.467 64.6267 300.452 63.9739 302.839 63.7952H302.847Z" fill="#70E0DD" fill-opacity="0.09"/>
<path d="M274.995 76.4469L275.337 74.6439C277.818 73.8746 295.777 69.4993 295.964 73.2373L280.471 76.3847L274.995 76.4469Z" fill="#70E0DD" fill-opacity="0.09"/>
<path d="M270.328 75.864C269.971 78.3198 268.096 80.4724 266.214 81.9412C265.327 82.6406 258.273 86.9304 257.487 87.2024C256.297 87.6221 255.24 87.591 254.019 87.5133L260.482 82.0345L270.336 75.864H270.328Z" fill="#70E0DD" fill-opacity="0.09"/>
<path d="M254.594 89.8524C255.706 91.3212 248.154 98.5874 246.731 99.7609C246.077 100.305 245.79 101.175 244.693 100.919C243.713 98.4631 245.797 96.2949 247.306 94.5075C248.286 93.3418 253.241 88.0728 254.594 89.8524Z" fill="#70E0DD" fill-opacity="0.09"/>
<path d="M246.217 103.312L247.61 104.152C247.718 104.696 242.531 112.801 241.792 113.477C240.423 114.728 238.704 114.775 239.093 112.568C239.684 109.257 243.363 105.03 246.217 103.312Z" fill="#70E0DD" fill-opacity="0.09"/>
<path d="M242.072 116.671C244.817 118.676 242.227 123.261 238.844 121.629C237.016 120.432 241.52 117.619 242.072 116.671Z" fill="#70E0DD" fill-opacity="0.09"/>
<path d="M375.226 362.044H372.901C373.033 360.241 372.706 358.251 372.877 356.479C373.204 353.075 376.074 348.125 375.809 345.483C375.623 343.602 371.158 335.963 372.325 334.65C373.328 334.479 374.137 335.38 374.658 336.103C375.071 336.67 378.625 343.291 378.695 343.711C379.737 350.083 374.075 355.508 375.234 362.044H375.226Z" fill="#70E0DD" fill-opacity="0.09"/>
<path d="M294.113 48.6409C295.404 48.5632 296.742 47.9182 297.714 49.3403C296.812 50.4361 295.482 50.6692 294.229 51.0889C291.445 52.0292 281.225 54.6015 278.76 54.3218C277.889 54.2207 277.282 54.244 276.745 53.4047C276.496 52.2779 278.2 51.8116 278.939 51.5318C281.754 50.4672 290.971 48.8274 294.113 48.6331V48.6409Z" fill="#70E0DD" fill-opacity="0.09"/>
<path d="M258.677 64.207C258.934 65.3883 258.413 65.7613 257.83 66.5617C256.033 69.0253 251.833 71.5587 249.632 73.5171C247.431 75.4755 247.827 77.7369 243.526 76.4391L245.323 73.284L258.677 64.207Z" fill="#70E0DD" fill-opacity="0.09"/>
<path d="M277.321 57.7955C277.484 59.0311 276.325 59.6917 275.524 60.36C271.619 63.6162 265.747 64.914 261.011 63.0256C261.166 62.0697 262.146 61.9687 262.877 61.6967C264.464 61.1061 276.761 57.2981 277.321 57.7877V57.7955Z" fill="#70E0DD" fill-opacity="0.09"/>
<path d="M243.527 78.1952C244.141 78.7859 237.919 86.5183 237.087 87.1944C236.052 88.0338 234.909 88.2047 233.626 88.0959C233.587 86.9535 233.618 85.7101 234.38 84.7698C234.684 84.3968 239.856 79.6718 240.322 79.3532C240.875 78.9724 243.169 77.8533 243.527 78.1875V78.1952Z" fill="#70E0DD" fill-opacity="0.09"/>
<path d="M230.126 100.927C228.453 99.722 232.871 92.8987 235.064 93.3495C236.184 93.5826 235.71 94.1421 235.383 94.8105C234.714 96.1705 232.101 102.349 230.126 100.927Z" fill="#70E0DD" fill-opacity="0.09"/>
<path d="M143.295 129.191L142.09 128.546C139.095 130.022 136.194 130.038 133.682 127.73C132.904 127.007 132.274 125.189 131.372 125.041C130.136 124.831 127.732 126.479 126.387 125.686C129.661 119.197 139.998 117.495 145.582 121.653C151.547 126.09 147.013 131.429 144.602 136.364C144.213 137.156 144.975 137.965 143.288 137.646V129.191H143.295ZM134.553 123.658C134.763 126.448 136.171 128.328 138.963 126.611L138.66 123.922L134.553 123.665V123.658Z" fill="#70E0DD" fill-opacity="0.09"/>
<path d="M185.831 125.406L180.371 125.484C177.797 130.644 174.974 131.592 170.385 127.753C168.837 129.681 169.249 132.447 167.912 134.577C167.538 135.175 167.943 135.595 166.605 135.315C163.307 126.23 162.981 121.357 173.885 120.751C177.898 120.526 184.4 120.899 185.824 125.399L185.831 125.406Z" fill="#70E0DD" fill-opacity="0.09"/>
<path d="M132.275 157.409C131.559 156.344 132.741 154.098 134.274 153.966C135.572 153.857 144.781 155.52 145.038 156.593C145.248 157.471 144.346 157.906 143.583 158.038C141.989 158.31 132.889 158.326 132.275 157.409Z" fill="#70E0DD" fill-opacity="0.09"/>
<path d="M175.34 154.549C175.496 155.318 175.083 155.909 174.5 156.328C173.326 157.168 163.152 157.782 160.881 157.906C159.824 157.96 159.194 158.302 158.447 157.16C157.949 156.134 159.474 156.08 160.08 155.901C161.807 155.388 174.663 153.943 175.34 154.549Z" fill="#70E0DD" fill-opacity="0.09"/>
<path d="M173.014 159.794C173.815 160.517 171.07 162.126 170.393 162.126H159.03C158.797 161.45 159.287 159.794 159.901 159.794H173.014Z" fill="#70E0DD" fill-opacity="0.09"/>
<path d="M145.038 159.794C147.402 161.807 135.44 163.424 134.562 161.248C134.562 159.973 143.537 160.346 145.038 159.794Z" fill="#70E0DD" fill-opacity="0.09"/>
</g>
<defs>
<clipPath id="clip0_519_16704">
<rect width="553" height="416" fill="white"/>
</clipPath>
</defs>
</svg>
