<svg width="131" height="50" viewBox="0 0 131 50" fill="none" xmlns="http://www.w3.org/2000/svg">
<path d="M6.25022 11.2009L0 22.0924L8.47802 31.9937L19.122 25.9292V13.6144L6.25022 11.2009Z" fill="white" fill-opacity="0.4"/>
<path d="M32.1795 11.2009L38.4297 22.0924L29.9517 31.9937L19.3077 25.9292V13.6144L32.1795 11.2009Z" fill="white" fill-opacity="0.85"/>
<path d="M25.4504 44.5957L12.8931 44.5287L8.59071 32.2241L19.1815 26.0672L29.8297 32.2536L25.4504 44.5957Z" fill="white" fill-opacity="0.7"/>
<path d="M0 29.5803V22.4018L8.41614 32.2413L12.6861 44.4942L6.37399 40.5955L0 29.5803Z" fill="white" fill-opacity="0.55"/>
<path d="M38.4297 29.5803V22.4018L30.0135 32.2413L25.7436 44.4942L32.0557 40.5955L38.4297 29.5803Z" fill="white"/>
<path d="M12.6491 7.46856L6.43555 11.0634L19.167 13.4208L31.9111 10.9808L25.3755 7.46953L12.6491 7.46856Z" fill="white" fill-opacity="0.25"/>
<path d="M51.0568 25V16.2728H54.0057C54.6875 16.2728 55.2472 16.3892 55.6847 16.6222C56.1222 16.8523 56.446 17.1691 56.6562 17.5725C56.8665 17.9759 56.9716 18.4347 56.9716 18.9489C56.9716 19.4631 56.8665 19.9191 56.6562 20.3168C56.446 20.7145 56.1236 21.027 55.6889 21.2543C55.2543 21.4787 54.6989 21.5909 54.0227 21.5909H51.6364V20.6364H53.9886C54.4545 20.6364 54.8295 20.5682 55.1136 20.4318C55.4006 20.2955 55.608 20.1023 55.7358 19.8523C55.8665 19.5995 55.9318 19.2983 55.9318 18.9489C55.9318 18.5995 55.8665 18.2941 55.7358 18.0327C55.6051 17.7713 55.3963 17.5696 55.1094 17.4276C54.8224 17.2827 54.4432 17.2103 53.9716 17.2103H52.1136V25H51.0568ZM55.1648 21.0796L57.3125 25H56.0852L53.9716 21.0796H55.1648ZM61.7326 25V16.2728H66.9996V17.2103H62.7894V20.1591H66.7269V21.0966H62.7894V24.0625H67.0678V25H61.7326ZM71.9045 25V16.2728H74.9556C75.5636 16.2728 76.065 16.3779 76.4599 16.5881C76.8548 16.7955 77.1488 17.0753 77.342 17.4276C77.5352 17.777 77.6317 18.1648 77.6317 18.5909C77.6317 18.9659 77.565 19.2756 77.4315 19.5199C77.3008 19.7642 77.1275 19.9574 76.9116 20.0995C76.6985 20.2415 76.467 20.3466 76.217 20.4148V20.5C76.484 20.5171 76.7525 20.6108 77.0224 20.7813C77.2923 20.9517 77.5181 21.1961 77.6999 21.5142C77.8817 21.8324 77.9727 22.2216 77.9727 22.6818C77.9727 23.1193 77.8732 23.5128 77.6744 23.8622C77.4755 24.2117 77.1616 24.4887 76.7326 24.6932C76.3036 24.8978 75.7454 25 75.0579 25H71.9045ZM72.9613 24.0625H75.0579C75.7482 24.0625 76.2383 23.929 76.5281 23.662C76.8207 23.3921 76.967 23.0654 76.967 22.6818C76.967 22.3864 76.8917 22.1137 76.7411 21.8637C76.5906 21.6108 76.3761 21.4091 76.0977 21.2586C75.8192 21.1051 75.4897 21.0284 75.109 21.0284H72.9613V24.0625ZM72.9613 20.108H74.9215C75.2397 20.108 75.5266 20.0455 75.7823 19.9205C76.0408 19.7955 76.2454 19.6193 76.396 19.3921C76.5494 19.1648 76.6261 18.8978 76.6261 18.5909C76.6261 18.2074 76.4925 17.8821 76.2255 17.6151C75.9585 17.3452 75.5352 17.2103 74.9556 17.2103H72.9613V20.108ZM90.0728 20.6364C90.0728 21.5568 89.9066 22.3523 89.5742 23.0228C89.2418 23.6932 88.7859 24.2103 88.2063 24.5739C87.6268 24.9375 86.9648 25.1193 86.2205 25.1193C85.4762 25.1193 84.8143 24.9375 84.2347 24.5739C83.6552 24.2103 83.1992 23.6932 82.8668 23.0228C82.5344 22.3523 82.3683 21.5568 82.3683 20.6364C82.3683 19.7159 82.5344 18.9205 82.8668 18.25C83.1992 17.5796 83.6552 17.0625 84.2347 16.6989C84.8143 16.3353 85.4762 16.1534 86.2205 16.1534C86.9648 16.1534 87.6268 16.3353 88.2063 16.6989C88.7859 17.0625 89.2418 17.5796 89.5742 18.25C89.9066 18.9205 90.0728 19.7159 90.0728 20.6364ZM89.0501 20.6364C89.0501 19.8807 88.9237 19.2429 88.6708 18.723C88.4208 18.2032 88.0813 17.8097 87.6523 17.5426C87.2262 17.2756 86.7489 17.1421 86.2205 17.1421C85.6921 17.1421 85.2134 17.2756 84.7844 17.5426C84.3583 17.8097 84.0188 18.2032 83.766 18.723C83.516 19.2429 83.391 19.8807 83.391 20.6364C83.391 21.3921 83.516 22.0299 83.766 22.5497C84.0188 23.0696 84.3583 23.4631 84.7844 23.7301C85.2134 23.9972 85.6921 24.1307 86.2205 24.1307C86.7489 24.1307 87.2262 23.9972 87.6523 23.7301C88.0813 23.4631 88.4208 23.0696 88.6708 22.5497C88.9237 22.0299 89.0501 21.3921 89.0501 20.6364ZM100.577 16.2728H101.634V22.0512C101.634 22.6478 101.493 23.1804 101.212 23.6492C100.934 24.1151 100.54 24.483 100.032 24.7529C99.5231 25.0199 98.9265 25.1534 98.2418 25.1534C97.5572 25.1534 96.9606 25.0199 96.4521 24.7529C95.9435 24.483 95.5487 24.1151 95.2674 23.6492C94.989 23.1804 94.8498 22.6478 94.8498 22.0512V16.2728H95.9066V21.9659C95.9066 22.3921 96.0004 22.7713 96.1879 23.1037C96.3754 23.4333 96.6424 23.6932 96.989 23.8836C97.3384 24.0711 97.756 24.1648 98.2418 24.1648C98.7276 24.1648 99.1452 24.0711 99.4947 23.8836C99.8441 23.6932 100.111 23.4333 100.296 23.1037C100.483 22.7713 100.577 22.3921 100.577 21.9659V16.2728ZM113.665 16.2728V25H112.642L107.886 18.1478H107.801V25H106.744V16.2728H107.767L112.54 23.1421H112.625V16.2728H113.665ZM121.473 25H118.779V16.2728H121.592C122.439 16.2728 123.163 16.4475 123.765 16.7969C124.368 17.1435 124.829 17.6421 125.15 18.2926C125.471 18.9404 125.632 19.7159 125.632 20.6193C125.632 21.5284 125.47 22.3111 125.146 22.9674C124.822 23.6208 124.35 24.1236 123.731 24.4759C123.112 24.8253 122.359 25 121.473 25ZM119.836 24.0625H121.404C122.126 24.0625 122.724 23.9233 123.199 23.6449C123.673 23.3665 124.027 22.9702 124.26 22.456C124.493 21.9418 124.609 21.3296 124.609 20.6193C124.609 19.9148 124.494 19.3083 124.264 18.7997C124.034 18.2884 123.69 17.8963 123.233 17.6236C122.775 17.348 122.206 17.2103 121.524 17.2103H119.836V24.0625ZM51.4148 40H50.3068L53.5114 31.2728H54.6023L57.8068 40H56.6989L54.0909 32.6534H54.0227L51.4148 40ZM51.8239 36.5909H56.2898V37.5284H51.8239V36.5909ZM64.8594 40H62.1662V31.2728H64.9787C65.8253 31.2728 66.5497 31.4475 67.152 31.7969C67.7543 32.1435 68.2159 32.6421 68.5369 33.2926C68.858 33.9404 69.0185 34.7159 69.0185 35.6193C69.0185 36.5284 68.8565 37.3111 68.5327 37.9674C68.2088 38.6208 67.7372 39.1236 67.1179 39.4759C66.4986 39.8253 65.7457 40 64.8594 40ZM63.223 39.0625H64.7912C65.5128 39.0625 66.1108 38.9233 66.5852 38.6449C67.0597 38.3665 67.4134 37.9702 67.6463 37.456C67.8793 36.9418 67.9957 36.3296 67.9957 35.6193C67.9957 34.9148 67.8807 34.3083 67.6506 33.7997C67.4205 33.2884 67.0767 32.8963 66.6193 32.6236C66.1619 32.348 65.5923 32.2103 64.9105 32.2103H63.223V39.0625ZM73.739 31.2728L76.3299 38.6193H76.4322L79.0231 31.2728H80.131L76.9265 40H75.8356L72.631 31.2728H73.739ZM85.5472 31.2728V40H84.4904V31.2728H85.5472ZM95.4389 33.4546C95.3878 33.0228 95.1804 32.6875 94.8168 32.4489C94.4531 32.2103 94.0071 32.0909 93.4787 32.0909C93.0923 32.0909 92.7543 32.1534 92.4645 32.2784C92.1776 32.4034 91.9531 32.5753 91.7912 32.7941C91.6321 33.0128 91.5526 33.2614 91.5526 33.5398C91.5526 33.7728 91.608 33.973 91.7188 34.1407C91.8324 34.3054 91.9773 34.4432 92.1534 34.554C92.3295 34.662 92.5142 34.7515 92.7074 34.8225C92.9006 34.8907 93.0781 34.9461 93.2401 34.9887L94.1264 35.2273C94.3537 35.287 94.6065 35.3693 94.8849 35.4745C95.1662 35.5796 95.4347 35.723 95.6903 35.9049C95.9489 36.0838 96.1619 36.314 96.3295 36.5952C96.4972 36.8765 96.581 37.2216 96.581 37.6307C96.581 38.1023 96.4574 38.5284 96.2102 38.9091C95.9659 39.2898 95.608 39.5924 95.1364 39.8168C94.6676 40.0412 94.098 40.1534 93.4276 40.1534C92.8026 40.1534 92.2614 40.0526 91.804 39.8509C91.3494 39.6492 90.9915 39.3679 90.7301 39.0071C90.4716 38.6463 90.3253 38.2273 90.2912 37.75H91.3821C91.4105 38.0796 91.5213 38.3523 91.7145 38.5682C91.9105 38.7813 92.1577 38.9404 92.456 39.0455C92.7571 39.1478 93.081 39.1989 93.4276 39.1989C93.831 39.1989 94.1932 39.1336 94.5142 39.0029C94.8352 38.8693 95.0895 38.6847 95.277 38.4489C95.4645 38.2103 95.5582 37.9318 95.5582 37.6137C95.5582 37.3239 95.4773 37.0881 95.3153 36.9063C95.1534 36.7245 94.9403 36.5767 94.6761 36.4631C94.4119 36.3495 94.1264 36.25 93.8196 36.1648L92.7457 35.858C92.0639 35.662 91.5241 35.3821 91.1264 35.0185C90.7287 34.6549 90.5298 34.179 90.5298 33.5909C90.5298 33.1023 90.6619 32.6762 90.9261 32.3125C91.1932 31.9461 91.5511 31.662 92 31.4603C92.4517 31.2557 92.956 31.1534 93.5128 31.1534C94.0753 31.1534 94.5753 31.2543 95.0128 31.456C95.4503 31.6549 95.7969 31.9276 96.0526 32.2742C96.3111 32.6208 96.4474 33.0142 96.4616 33.4546H95.4389ZM108.682 35.6364C108.682 36.5568 108.516 37.3523 108.184 38.0228C107.851 38.6932 107.395 39.2103 106.816 39.5739C106.236 39.9375 105.574 40.1193 104.83 40.1193C104.086 40.1193 103.424 39.9375 102.844 39.5739C102.265 39.2103 101.809 38.6932 101.476 38.0228C101.144 37.3523 100.978 36.5568 100.978 35.6364C100.978 34.7159 101.144 33.9205 101.476 33.25C101.809 32.5796 102.265 32.0625 102.844 31.6989C103.424 31.3353 104.086 31.1534 104.83 31.1534C105.574 31.1534 106.236 31.3353 106.816 31.6989C107.395 32.0625 107.851 32.5796 108.184 33.25C108.516 33.9205 108.682 34.7159 108.682 35.6364ZM107.659 35.6364C107.659 34.8807 107.533 34.2429 107.28 33.723C107.03 33.2032 106.691 32.8097 106.262 32.5426C105.836 32.2756 105.358 32.1421 104.83 32.1421C104.301 32.1421 103.823 32.2756 103.394 32.5426C102.968 32.8097 102.628 33.2032 102.375 33.723C102.125 34.2429 102 34.8807 102 35.6364C102 36.3921 102.125 37.0299 102.375 37.5497C102.628 38.0696 102.968 38.4631 103.394 38.7301C103.823 38.9972 104.301 39.1307 104.83 39.1307C105.358 39.1307 105.836 38.9972 106.262 38.7301C106.691 38.4631 107.03 38.0696 107.28 37.5497C107.533 37.0299 107.659 36.3921 107.659 35.6364ZM113.459 40V31.2728H116.408C117.09 31.2728 117.65 31.3892 118.087 31.6222C118.525 31.8523 118.848 32.1691 119.059 32.5725C119.269 32.9759 119.374 33.4347 119.374 33.9489C119.374 34.4631 119.269 34.9191 119.059 35.3168C118.848 35.7145 118.526 36.027 118.091 36.2543C117.657 36.4787 117.101 36.5909 116.425 36.5909H114.039V35.6364H116.391C116.857 35.6364 117.232 35.5682 117.516 35.4318C117.803 35.2955 118.01 35.1023 118.138 34.8523C118.269 34.5995 118.334 34.2983 118.334 33.9489C118.334 33.5995 118.269 33.2941 118.138 33.0327C118.007 32.7713 117.799 32.5696 117.512 32.4276C117.225 32.2827 116.846 32.2103 116.374 32.2103H114.516V40H113.459ZM117.567 36.0796L119.715 40H118.488L116.374 36.0796H117.567ZM123.092 31.2728H124.302L126.723 35.3466H126.825L129.245 31.2728H130.456L127.302 36.4034V40H126.245V36.4034L123.092 31.2728Z" fill="white"/>
</svg>
